<?xml version="1.0" encoding="UTF-8" standalone="no"?><svg xmlns="http://www.w3.org/2000/svg" xmlns:xlink="http://www.w3.org/1999/xlink" contentScriptType="application/ecmascript" contentStyleType="text/css" height="582px" preserveAspectRatio="none" style="width:739px;height:582px;" version="1.1" viewBox="0 0 739 582" width="739px" zoomAndPan="magnify"><defs><filter height="300%" id="f1x6e8koul02ox" width="300%" x="-1" y="-1"><feGaussianBlur result="blurOut" stdDeviation="2.0"/><feColorMatrix in="blurOut" result="blurOut2" type="matrix" values="0 0 0 0 0 0 0 0 0 0 0 0 0 0 0 0 0 0 .4 0"/><feOffset dx="4.0" dy="4.0" in="blurOut2" result="blurOut3"/><feBlend in="SourceGraphic" in2="blurOut3" mode="normal"/></filter></defs><g><!--MD5=[dab16d122782a892ddb6ee0eadcd68f0]
class Access--><a href="#Access" target="_top" title="#Access" xlink:actuate="onRequest" xlink:href="#Access" xlink:show="new" xlink:title="#Access" xlink:type="simple"><rect fill="#FEFECE" filter="url(#f1x6e8koul02ox)" height="86.4141" id="Access" style="stroke: #A80036; stroke-width: 1.5;" width="133" x="6" y="335"/><ellipse cx="47.55" cy="351" fill="#B4A7E5" rx="11" ry="11" style="stroke: #A80036; stroke-width: 1.0;"/><path d="M48.5031,347.7813 L48.5031,354.2969 L50.2219,354.2969 C50.675,354.2969 50.8156,354.3281 50.9875,354.4531 C51.2219,354.625 51.3313,354.875 51.3313,355.1563 C51.3313,355.7188 50.9719,356 50.2219,356 L45.0813,356 C44.675,356 44.4719,355.9531 44.3156,355.8281 C44.0969,355.6719 43.9563,355.4063 43.9563,355.1563 C43.9563,354.8594 44.1125,354.5781 44.3625,354.4219 C44.5188,354.3125 44.6438,354.2969 45.0813,354.2969 L46.8,354.2969 L46.8,347.7813 L45.0813,347.7813 C44.6594,347.7813 44.4719,347.75 44.3156,347.6406 C44.0969,347.4688 43.9563,347.2188 43.9563,346.9375 C43.9563,346.6563 44.1125,346.3594 44.3625,346.2031 C44.5188,346.1094 44.6438,346.0938 45.0813,346.0938 L50.2219,346.0938 C50.675,346.0938 50.8156,346.125 50.9875,346.2344 C51.2219,346.4063 51.3313,346.6719 51.3313,346.9375 C51.3313,347.2344 51.1906,347.5156 50.925,347.6719 C50.8,347.75 50.6125,347.7813 50.2219,347.7813 Z "/><text fill="#000000" font-family="sans-serif" font-size="12" font-style="italic" lengthAdjust="spacingAndGlyphs" textLength="42" x="67.45" y="355.1543">Access</text><line style="stroke: #A80036; stroke-width: 1.5;" x1="7" x2="138" y1="367" y2="367"/><text fill="#000000" font-family="sans-serif" font-size="11" lengthAdjust="spacingAndGlyphs" textLength="121" x="12" y="381.2104">phoneNumber: string</text><text fill="#000000" font-family="sans-serif" font-size="11" lengthAdjust="spacingAndGlyphs" textLength="80" x="12" y="394.0151">price: number</text><text fill="#000000" font-family="sans-serif" font-size="11" lengthAdjust="spacingAndGlyphs" textLength="94" x="12" y="406.8198">dateTime: string</text><line style="stroke: #A80036; stroke-width: 1.5;" x1="7" x2="138" y1="413.4141" y2="413.4141"/></a><!--MD5=[4d37ff7ba0ceae5cd2f46bdb37209993]
class Bill--><a href="#Bill" target="_top" title="#Bill" xlink:actuate="onRequest" xlink:href="#Bill" xlink:show="new" xlink:title="#Bill" xlink:type="simple"><rect fill="#F5DEB3" filter="url(#f1x6e8koul02ox)" height="99.2188" id="Bill" style="stroke: #A80036; stroke-width: 1.5;" width="178" x="419.5" y="159"/><rect fill="#F5DEB3" height="32" style="stroke: #A80036; stroke-width: 1.5;" width="178" x="419.5" y="159"/><ellipse cx="495.75" cy="175" fill="#ADD1B2" rx="11" ry="11" style="stroke: #A80036; stroke-width: 1.0;"/><path d="M498.0938,170.6719 L498.2656,170.75 C498.4844,170.4375 498.6875,170.3438 498.9844,170.3438 C499.2813,170.3438 499.5625,170.4844 499.7188,170.75 C499.8125,170.9063 499.8281,171.0313 499.8281,171.4688 L499.8281,172.8906 C499.8281,173.3125 499.7969,173.5 499.6875,173.6563 C499.5156,173.875 499.25,174.0156 498.9844,174.0156 C498.7656,174.0156 498.5313,173.9063 498.3906,173.7656 C498.25,173.6406 498.2188,173.5156 498.1563,173.1094 C498.0625,172.7031 497.8906,172.4844 497.4063,172.2031 C496.9375,171.9531 496.3281,171.7969 495.75,171.7969 C494.0156,171.7969 492.7656,173.1094 492.7656,174.8906 L492.7656,175.9844 C492.7656,177.6875 494.0625,178.7813 496.1094,178.7813 C496.875,178.7813 497.5625,178.6563 497.9844,178.3906 C498.1719,178.2969 498.1719,178.2969 498.625,177.8125 C498.8125,177.625 499.0156,177.5469 499.2344,177.5469 C499.7031,177.5469 500.0938,177.9375 500.0938,178.3906 C500.0938,178.7813 499.7656,179.2344 499.1875,179.6406 C498.4375,180.1875 497.2813,180.4844 496.0625,180.4844 C493.1719,180.4844 491.0625,178.5938 491.0625,176.0156 L491.0625,174.8906 C491.0625,172.1719 493.0625,170.0938 495.6875,170.0938 C496.5625,170.0938 497.1563,170.2344 498.0938,170.6719 Z "/><text fill="#000000" font-family="sans-serif" font-size="12" lengthAdjust="spacingAndGlyphs" textLength="17" x="516.25" y="179.1543">Bill</text><line style="stroke: #A80036; stroke-width: 1.5;" x1="420.5" x2="596.5" y1="191" y2="191"/><text fill="#000000" font-family="sans-serif" font-size="11" lengthAdjust="spacingAndGlyphs" textLength="77" x="425.5" y="205.2104">month: string</text><text fill="#000000" font-family="sans-serif" font-size="11" lengthAdjust="spacingAndGlyphs" textLength="102" x="425.5" y="218.0151">contract: Contract</text><text fill="#000000" font-family="sans-serif" font-size="11" lengthAdjust="spacingAndGlyphs" textLength="110" x="425.5" y="230.8198">accesses: Access[]</text><text fill="#000000" font-family="sans-serif" font-size="11" lengthAdjust="spacingAndGlyphs" textLength="166" x="425.5" y="243.6245">paymentState: PaymentState</text><line style="stroke: #A80036; stroke-width: 1.5;" x1="420.5" x2="596.5" y1="250.2188" y2="250.2188"/></a><!--MD5=[f1a6d41533bfefd499dd69711c818e15]
class BillsService--><a href="#BillsService" target="_top" title="#BillsService" xlink:actuate="onRequest" xlink:href="#BillsService" xlink:show="new" xlink:title="#BillsService" xlink:type="simple"><rect fill="#FEFECE" filter="url(#f1x6e8koul02ox)" height="73.6094" id="BillsService" style="stroke: #A80036; stroke-width: 1.5;" width="157" x="430" y="8"/><ellipse cx="470.65" cy="24" fill="#B4A7E5" rx="11" ry="11" style="stroke: #A80036; stroke-width: 1.0;"/><path d="M471.6031,20.7813 L471.6031,27.2969 L473.3219,27.2969 C473.775,27.2969 473.9156,27.3281 474.0875,27.4531 C474.3219,27.625 474.4313,27.875 474.4313,28.1563 C474.4313,28.7188 474.0719,29 473.3219,29 L468.1813,29 C467.775,29 467.5719,28.9531 467.4156,28.8281 C467.1969,28.6719 467.0563,28.4063 467.0563,28.1563 C467.0563,27.8594 467.2125,27.5781 467.4625,27.4219 C467.6188,27.3125 467.7438,27.2969 468.1813,27.2969 L469.9,27.2969 L469.9,20.7813 L468.1813,20.7813 C467.7594,20.7813 467.5719,20.75 467.4156,20.6406 C467.1969,20.4688 467.0563,20.2188 467.0563,19.9375 C467.0563,19.6563 467.2125,19.3594 467.4625,19.2031 C467.6188,19.1094 467.7438,19.0938 468.1813,19.0938 L473.3219,19.0938 C473.775,19.0938 473.9156,19.125 474.0875,19.2344 C474.3219,19.4063 474.4313,19.6719 474.4313,19.9375 C474.4313,20.2344 474.2906,20.5156 474.025,20.6719 C473.9,20.75 473.7125,20.7813 473.3219,20.7813 Z "/><text fill="#000000" font-family="sans-serif" font-size="12" font-style="italic" lengthAdjust="spacingAndGlyphs" textLength="68" x="490.35" y="28.1543">BillsService</text><line style="stroke: #A80036; stroke-width: 1.5;" x1="431" x2="586" y1="40" y2="40"/><line style="stroke: #A80036; stroke-width: 1.5;" x1="431" x2="586" y1="48" y2="48"/><text fill="#000000" font-family="sans-serif" font-size="11" lengthAdjust="spacingAndGlyphs" textLength="83" x="436" y="62.2104">getBills(): Bill[]</text><text fill="#000000" font-family="sans-serif" font-size="11" lengthAdjust="spacingAndGlyphs" textLength="145" x="436" y="75.0151">getBill(month: string): Bill</text></a><!--MD5=[880379458df43105f5fc3758001816db]
class CallAccess--><a href="#CallAccess" target="_top" title="#CallAccess" xlink:actuate="onRequest" xlink:href="#CallAccess" xlink:show="new" xlink:title="#CallAccess" xlink:type="simple"><rect fill="#FEFECE" filter="url(#f1x6e8koul02ox)" height="60.8047" id="CallAccess" style="stroke: #A80036; stroke-width: 1.5;" width="100" x="308.5" y="347.5"/><ellipse cx="325.3" cy="363.5" fill="#B4A7E5" rx="11" ry="11" style="stroke: #A80036; stroke-width: 1.0;"/><path d="M326.2531,360.2813 L326.2531,366.7969 L327.9719,366.7969 C328.425,366.7969 328.5656,366.8281 328.7375,366.9531 C328.9719,367.125 329.0813,367.375 329.0813,367.6563 C329.0813,368.2188 328.7219,368.5 327.9719,368.5 L322.8313,368.5 C322.425,368.5 322.2219,368.4531 322.0656,368.3281 C321.8469,368.1719 321.7063,367.9063 321.7063,367.6563 C321.7063,367.3594 321.8625,367.0781 322.1125,366.9219 C322.2688,366.8125 322.3938,366.7969 322.8313,366.7969 L324.55,366.7969 L324.55,360.2813 L322.8313,360.2813 C322.4094,360.2813 322.2219,360.25 322.0656,360.1406 C321.8469,359.9688 321.7063,359.7188 321.7063,359.4375 C321.7063,359.1563 321.8625,358.8594 322.1125,358.7031 C322.2688,358.6094 322.3938,358.5938 322.8313,358.5938 L327.9719,358.5938 C328.425,358.5938 328.5656,358.625 328.7375,358.7344 C328.9719,358.9063 329.0813,359.1719 329.0813,359.4375 C329.0813,359.7344 328.9406,360.0156 328.675,360.1719 C328.55,360.25 328.3625,360.2813 327.9719,360.2813 Z "/><text fill="#000000" font-family="sans-serif" font-size="12" font-style="italic" lengthAdjust="spacingAndGlyphs" textLength="64" x="339.7" y="367.6543">CallAccess</text><line style="stroke: #A80036; stroke-width: 1.5;" x1="309.5" x2="407.5" y1="379.5" y2="379.5"/><text fill="#000000" font-family="sans-serif" font-size="11" lengthAdjust="spacingAndGlyphs" textLength="88" x="314.5" y="393.7104">duration: string</text><line style="stroke: #A80036; stroke-width: 1.5;" x1="309.5" x2="407.5" y1="400.3047" y2="400.3047"/></a><!--MD5=[461026a38b737c4ce5e8254b9a577e21]
class Contract--><a href="#Contract" target="_top" title="#Contract" xlink:actuate="onRequest" xlink:href="#Contract" xlink:show="new" xlink:title="#Contract" xlink:type="simple"><rect fill="#FEFECE" filter="url(#f1x6e8koul02ox)" height="73.6094" id="Contract" style="stroke: #A80036; stroke-width: 1.5;" width="130" x="443.5" y="341"/><ellipse cx="478.3" cy="357" fill="#B4A7E5" rx="11" ry="11" style="stroke: #A80036; stroke-width: 1.0;"/><path d="M479.2531,353.7813 L479.2531,360.2969 L480.9719,360.2969 C481.425,360.2969 481.5656,360.3281 481.7375,360.4531 C481.9719,360.625 482.0813,360.875 482.0813,361.1563 C482.0813,361.7188 481.7219,362 480.9719,362 L475.8313,362 C475.425,362 475.2219,361.9531 475.0656,361.8281 C474.8469,361.6719 474.7063,361.4063 474.7063,361.1563 C474.7063,360.8594 474.8625,360.5781 475.1125,360.4219 C475.2688,360.3125 475.3938,360.2969 475.8313,360.2969 L477.55,360.2969 L477.55,353.7813 L475.8313,353.7813 C475.4094,353.7813 475.2219,353.75 475.0656,353.6406 C474.8469,353.4688 474.7063,353.2188 474.7063,352.9375 C474.7063,352.6563 474.8625,352.3594 475.1125,352.2031 C475.2688,352.1094 475.3938,352.0938 475.8313,352.0938 L480.9719,352.0938 C481.425,352.0938 481.5656,352.125 481.7375,352.2344 C481.9719,352.4063 482.0813,352.6719 482.0813,352.9375 C482.0813,353.2344 481.9406,353.5156 481.675,353.6719 C481.55,353.75 481.3625,353.7813 480.9719,353.7813 Z "/><text fill="#000000" font-family="sans-serif" font-size="12" font-style="italic" lengthAdjust="spacingAndGlyphs" textLength="54" x="496.7" y="361.1543">Contract</text><line style="stroke: #A80036; stroke-width: 1.5;" x1="444.5" x2="572.5" y1="373" y2="373"/><text fill="#000000" font-family="sans-serif" font-size="11" lengthAdjust="spacingAndGlyphs" textLength="62" x="449.5" y="387.2104">id: number</text><text fill="#000000" font-family="sans-serif" font-size="11" lengthAdjust="spacingAndGlyphs" textLength="118" x="449.5" y="400.0151">customer: Customer</text><line style="stroke: #A80036; stroke-width: 1.5;" x1="444.5" x2="572.5" y1="406.6094" y2="406.6094"/></a><!--MD5=[2ce0c9fb7f55b1e256ab28a8ea6b25ec]
class Customer--><a href="#Customer" target="_top" title="#Customer" xlink:actuate="onRequest" xlink:href="#Customer" xlink:show="new" xlink:title="#Customer" xlink:type="simple"><rect fill="#FEFECE" filter="url(#f1x6e8koul02ox)" height="73.6094" id="Customer" style="stroke: #A80036; stroke-width: 1.5;" width="129" x="444" y="498"/><ellipse cx="476.1" cy="514" fill="#B4A7E5" rx="11" ry="11" style="stroke: #A80036; stroke-width: 1.0;"/><path d="M477.0531,510.7813 L477.0531,517.2969 L478.7719,517.2969 C479.225,517.2969 479.3656,517.3281 479.5375,517.4531 C479.7719,517.625 479.8813,517.875 479.8813,518.1563 C479.8813,518.7188 479.5219,519 478.7719,519 L473.6313,519 C473.225,519 473.0219,518.9531 472.8656,518.8281 C472.6469,518.6719 472.5063,518.4063 472.5063,518.1563 C472.5063,517.8594 472.6625,517.5781 472.9125,517.4219 C473.0688,517.3125 473.1938,517.2969 473.6313,517.2969 L475.35,517.2969 L475.35,510.7813 L473.6313,510.7813 C473.2094,510.7813 473.0219,510.75 472.8656,510.6406 C472.6469,510.4688 472.5063,510.2188 472.5063,509.9375 C472.5063,509.6563 472.6625,509.3594 472.9125,509.2031 C473.0688,509.1094 473.1938,509.0938 473.6313,509.0938 L478.7719,509.0938 C479.225,509.0938 479.3656,509.125 479.5375,509.2344 C479.7719,509.4063 479.8813,509.6719 479.8813,509.9375 C479.8813,510.2344 479.7406,510.5156 479.475,510.6719 C479.35,510.75 479.1625,510.7813 478.7719,510.7813 Z "/><text fill="#000000" font-family="sans-serif" font-size="12" font-style="italic" lengthAdjust="spacingAndGlyphs" textLength="59" x="493.9" y="518.1543">Customer</text><line style="stroke: #A80036; stroke-width: 1.5;" x1="445" x2="572" y1="530" y2="530"/><text fill="#000000" font-family="sans-serif" font-size="11" lengthAdjust="spacingAndGlyphs" textLength="72" x="450" y="544.2104">email: string</text><text fill="#000000" font-family="sans-serif" font-size="11" lengthAdjust="spacingAndGlyphs" textLength="117" x="450" y="557.0151">contracts: Contract[]</text><line style="stroke: #A80036; stroke-width: 1.5;" x1="445" x2="572" y1="563.6094" y2="563.6094"/></a><!--MD5=[23baecea0dc48fda9420f8c6e1c85951]
class PaymentState--><a href="#PaymentState" target="_top" title="#PaymentState" xlink:actuate="onRequest" xlink:href="#PaymentState" xlink:show="new" xlink:title="#PaymentState" xlink:type="simple"><rect fill="#FEFECE" filter="url(#f1x6e8koul02ox)" height="73.6094" id="PaymentState" style="stroke: #A80036; stroke-width: 1.5;" width="120" x="608.5" y="341"/><ellipse cx="623.5" cy="357" fill="#EB937F" rx="11" ry="11" style="stroke: #A80036; stroke-width: 1.0;"/><path d="M621.7969,357.875 L621.7969,360.2969 L626.1563,360.2969 L626.1563,359.4219 C626.1563,358.9375 626.1875,358.7969 626.2969,358.6406 C626.4688,358.3906 626.7344,358.2813 627,358.2813 C627.2813,358.2813 627.5625,358.4375 627.7344,358.6875 C627.8125,358.8438 627.8438,358.9844 627.8438,359.4219 L627.8438,362 L619.8438,362 C619.4531,362 619.2188,361.9531 619.0781,361.8281 C618.8594,361.6719 618.7188,361.4219 618.7188,361.1563 C618.7188,360.8594 618.875,360.5938 619.125,360.4219 C619.2813,360.3125 619.4375,360.2969 619.8438,360.2969 L620.0938,360.2969 L620.0938,353.7813 L619.8438,353.7813 C619.4219,353.7813 619.2344,353.75 619.0781,353.6406 C618.8594,353.4688 618.7188,353.2188 618.7188,352.9375 C618.7188,352.6563 618.875,352.3594 619.125,352.2031 C619.2813,352.1094 619.4063,352.0938 619.8438,352.0938 L627.4688,352.0938 L627.4688,354.6406 C627.4688,355.1094 627.4375,355.25 627.3281,355.4219 C627.1563,355.6406 626.8906,355.7813 626.625,355.7813 C626.3438,355.7813 626.0625,355.625 625.8906,355.375 C625.8125,355.2188 625.7813,355.0469 625.7813,354.6406 L625.7813,353.7813 L621.7969,353.7813 L621.7969,356.1875 L623.25,356.1875 L623.25,356.0625 C623.25,355.6094 623.2813,355.4531 623.3906,355.2813 C623.5625,355.0625 623.8281,354.9219 624.0781,354.9219 C624.5313,354.9219 624.8438,355.2344 624.9063,355.7031 C624.9219,355.8594 624.9219,355.9063 624.9219,356.0625 L624.9219,357.9844 C624.9219,358.4375 624.8906,358.5938 624.7656,358.75 C624.6094,358.9688 624.3438,359.1094 624.0938,359.1094 C623.7969,359.1094 623.5156,358.9531 623.3594,358.7031 C623.2813,358.5469 623.25,358.3906 623.25,357.9844 L623.25,357.875 Z "/><text fill="#000000" font-family="sans-serif" font-size="12" lengthAdjust="spacingAndGlyphs" textLength="88" x="637.5" y="361.1543">PaymentState</text><line style="stroke: #A80036; stroke-width: 1.5;" x1="609.5" x2="727.5" y1="373" y2="373"/><text fill="#000000" font-family="sans-serif" font-size="11" lengthAdjust="spacingAndGlyphs" textLength="46" x="614.5" y="387.2104">WAITING</text><text fill="#000000" font-family="sans-serif" font-size="11" lengthAdjust="spacingAndGlyphs" textLength="32" x="614.5" y="400.0151">DONE</text><line style="stroke: #A80036; stroke-width: 1.5;" x1="609.5" x2="727.5" y1="406.6094" y2="406.6094"/></a><!--MD5=[31e66b479b66bd395e5f7696f35a5552]
class SmsAccess--><a href="#SmsAccess" target="_top" title="#SmsAccess" xlink:actuate="onRequest" xlink:href="#SmsAccess" xlink:show="new" xlink:title="#SmsAccess" xlink:type="simple"><rect fill="#FEFECE" filter="url(#f1x6e8koul02ox)" height="48" id="SmsAccess" style="stroke: #A80036; stroke-width: 1.5;" width="99" x="174" y="354"/><ellipse cx="189" cy="370" fill="#B4A7E5" rx="11" ry="11" style="stroke: #A80036; stroke-width: 1.0;"/><path d="M189.9531,366.7813 L189.9531,373.2969 L191.6719,373.2969 C192.125,373.2969 192.2656,373.3281 192.4375,373.4531 C192.6719,373.625 192.7813,373.875 192.7813,374.1563 C192.7813,374.7188 192.4219,375 191.6719,375 L186.5313,375 C186.125,375 185.9219,374.9531 185.7656,374.8281 C185.5469,374.6719 185.4063,374.4063 185.4063,374.1563 C185.4063,373.8594 185.5625,373.5781 185.8125,373.4219 C185.9688,373.3125 186.0938,373.2969 186.5313,373.2969 L188.25,373.2969 L188.25,366.7813 L186.5313,366.7813 C186.1094,366.7813 185.9219,366.75 185.7656,366.6406 C185.5469,366.4688 185.4063,366.2188 185.4063,365.9375 C185.4063,365.6563 185.5625,365.3594 185.8125,365.2031 C185.9688,365.1094 186.0938,365.0938 186.5313,365.0938 L191.6719,365.0938 C192.125,365.0938 192.2656,365.125 192.4375,365.2344 C192.6719,365.4063 192.7813,365.6719 192.7813,365.9375 C192.7813,366.2344 192.6406,366.5156 192.375,366.6719 C192.25,366.75 192.0625,366.7813 191.6719,366.7813 Z "/><text fill="#000000" font-family="sans-serif" font-size="12" font-style="italic" lengthAdjust="spacingAndGlyphs" textLength="67" x="203" y="374.1543">SmsAccess</text><line style="stroke: #A80036; stroke-width: 1.5;" x1="175" x2="272" y1="386" y2="386"/><line style="stroke: #A80036; stroke-width: 1.5;" x1="175" x2="272" y1="394" y2="394"/></a><!--MD5=[6f5f88b2dfd8ca7b17fefaeb7ae4e9ed]
reverse link Access to CallAccess--><path d="M129.184,321.676 C142.823,311.362 158.086,302.098 174,296.5 C215.507,281.898 232.151,280.15 273,296.5 C298.702,306.787 321.073,328.889 336.479,347.484 " fill="none" id="Access&lt;-CallAccess" style="stroke: #A80036; stroke-width: 1.0;"/><polygon fill="none" points="133.322,327.335,113.418,334.604,124.445,316.51,133.322,327.335" style="stroke: #A80036; stroke-width: 1.0;"/><!--MD5=[ca51bfe040981cf96901c76cb0a526d2]
reverse link Access to SmsAccess--><path d="M159.153,378 C164.018,378 168.883,378 173.748,378 " fill="none" id="Access&lt;-SmsAccess" style="stroke: #A80036; stroke-width: 1.0;"/><polygon fill="none" points="159.152,385,139.152,378,159.152,371,159.152,385" style="stroke: #A80036; stroke-width: 1.0;"/><!--MD5=[e5ff7d02f1a7841732df03208159d291]
link Bill to Access--><path d="M419.479,237.914 C347.622,261.641 244.379,297.528 156.5,335 C152.315,336.785 148.044,338.679 143.755,340.639 " fill="none" id="Bill-&gt;Access" style="stroke: #A80036; stroke-width: 1.0;"/><polygon fill="#A80036" points="139.098,342.788,148.9459,342.6477,143.6377,340.6924,145.593,335.3843,139.098,342.788" style="stroke: #A80036; stroke-width: 1.0;"/><text fill="#000000" font-family="sans-serif" font-size="13" lengthAdjust="spacingAndGlyphs" textLength="59" x="272.5" y="301.0669">accesses</text><text fill="#000000" font-family="sans-serif" font-size="13" lengthAdjust="spacingAndGlyphs" textLength="7" x="147.2031" y="334.9001">*</text><!--MD5=[b7a6ca84e9226637305a49885643a805]
link Bill to Contract--><path d="M508.5,258.398 C508.5,282.906 508.5,312.26 508.5,335.634 " fill="none" id="Bill-&gt;Contract" style="stroke: #A80036; stroke-width: 1.0;"/><polygon fill="#A80036" points="508.5,340.83,512.5,331.83,508.5,335.83,504.5,331.83,508.5,340.83" style="stroke: #A80036; stroke-width: 1.0;"/><text fill="#000000" font-family="sans-serif" font-size="13" lengthAdjust="spacingAndGlyphs" textLength="53" x="509.5" y="301.0669">contract</text><!--MD5=[d572f0324f187b684bbf209d9de6228a]
link Bill to PaymentState--><path d="M555.209,258.398 C579.111,283.421 607.839,313.496 630.386,337.099 " fill="none" id="Bill-&gt;PaymentState" style="stroke: #A80036; stroke-width: 1.0;"/><polygon fill="#A80036" points="633.949,340.83,630.6242,331.5593,630.4951,337.2147,624.8397,337.0856,633.949,340.83" style="stroke: #A80036; stroke-width: 1.0;"/><text fill="#000000" font-family="sans-serif" font-size="13" lengthAdjust="spacingAndGlyphs" textLength="92" x="599.5" y="301.0669">paymentState</text><!--MD5=[ec00efe55f34d75c5becf3947a529335]
link BillsService to Bill--><path d="M508.5,82.244 C508.5,104.843 508.5,134.205 508.5,158.82 " fill="none" id="BillsService-Bill" style="stroke: #A80036; stroke-width: 1.0;"/><text fill="#000000" font-family="sans-serif" font-size="13" lengthAdjust="spacingAndGlyphs" textLength="23" x="509.5" y="125.0669">use</text><!--MD5=[6a0c816ed4225dd335dfd1cbbe9e3505]
link Contract to Customer--><path d="M474.309,415.218 C466.238,425.944 458.749,438.252 454.5,451 C449.567,465.799 454.916,480.535 463.877,493.3933 " fill="none" id="Contract-&gt;Customer" style="stroke: #A80036; stroke-width: 1.0;"/><polygon fill="#A80036" points="467.045,497.6793,464.9127,488.064,464.0733,493.6582,458.4791,492.8188,467.045,497.6793" style="stroke: #A80036; stroke-width: 1.0;"/><text fill="#000000" font-family="sans-serif" font-size="13" lengthAdjust="spacingAndGlyphs" textLength="61" x="455.5" y="464.0669">customer</text><!--MD5=[fb8596f12b2df2b260b2a29b4bb09f08]
link Customer to Contract--><path d="M516.93,497.8769 C518.821,488.2258 520.548,477.7636 521.5,468 C523.026,452.361 521.343,435.266 518.739,420.276 " fill="none" id="Customer-&gt;Contract" style="stroke: #A80036; stroke-width: 1.0;"/><polygon fill="#A80036" points="517.824,415.278,515.5093,424.851,518.724,420.1963,523.3786,423.411,517.824,415.278" style="stroke: #A80036; stroke-width: 1.0;"/><text fill="#000000" font-family="sans-serif" font-size="13" lengthAdjust="spacingAndGlyphs" textLength="60" x="523.5" y="464.0669">contracts</text><text fill="#000000" font-family="sans-serif" font-size="13" lengthAdjust="spacingAndGlyphs" textLength="7" x="511.7886" y="434.8046">*</text><!--MD5=[d8636ff478dba3c5cd5801e1a6b66c1e]
@startuml
interface Access [[#Access]] {
  phoneNumber: string
  price: number
  dateTime: string
}

class Bill [[#Bill]] #wheat {
  month: string
  contract: Contract
  accesses: Access[]
  paymentState: PaymentState
}

interface BillsService [[#BillsService]] {
  getBills(): Bill[]
  getBill(month: string): Bill
}

interface CallAccess [[#CallAccess]] {
  duration: string
}

interface Contract [[#Contract]] {
  id: number
  customer: Customer
}

interface Customer [[#Customer]] {
  email: string
  contracts: Contract[]
}

enum PaymentState [[#PaymentState]] {
  WAITING
  DONE
}

interface SmsAccess [[#SmsAccess]]

Access <|- CallAccess
Access <|- SmsAccess
Bill - -> "*" Access: accesses
Bill - -> Contract: contract
Bill - -> PaymentState: paymentState
BillsService - - Bill: use
Contract - -> Customer: customer
Customer - -> "*" Contract: contracts
@enduml

PlantUML version 1.2020.02(Sun Mar 01 10:22:07 UTC 2020)
(GPL source distribution)
Java Runtime: Java(TM) SE Runtime Environment
JVM: Java HotSpot(TM) 64-Bit Server VM
Java Version: 1.7.0_25-b15
Operating System: Linux
Default Encoding: UTF-8
Language: en
Country: US
--></g></svg>