<?xml version="1.0" encoding="UTF-8" standalone="no"?><svg xmlns="http://www.w3.org/2000/svg" xmlns:xlink="http://www.w3.org/1999/xlink" contentScriptType="application/ecmascript" contentStyleType="text/css" height="582px" preserveAspectRatio="none" style="width:961px;height:582px;" version="1.1" viewBox="0 0 961 582" width="961px" zoomAndPan="magnify"><defs><filter height="300%" id="f13lq1qgdm9lzq" width="300%" x="-1" y="-1"><feGaussianBlur result="blurOut" stdDeviation="2.0"/><feColorMatrix in="blurOut" result="blurOut2" type="matrix" values="0 0 0 0 0 0 0 0 0 0 0 0 0 0 0 0 0 0 .4 0"/><feOffset dx="4.0" dy="4.0" in="blurOut2" result="blurOut3"/><feBlend in="SourceGraphic" in2="blurOut3" mode="normal"/></filter></defs><g><!--MD5=[dab16d122782a892ddb6ee0eadcd68f0]
class Access--><a href="#Access" target="_top" title="#Access" xlink:actuate="onRequest" xlink:href="#Access" xlink:show="new" xlink:title="#Access" xlink:type="simple"><rect fill="#FEFECE" filter="url(#f13lq1qgdm9lzq)" height="86.4141" id="Access" style="stroke: #A80036; stroke-width: 1.5;" width="226" x="6" y="335"/><ellipse cx="93.75" cy="351" fill="#B4A7E5" rx="11" ry="11" style="stroke: #A80036; stroke-width: 1.0;"/><path d="M94.7031,347.7813 L94.7031,354.2969 L96.4219,354.2969 C96.875,354.2969 97.0156,354.3281 97.1875,354.4531 C97.4219,354.625 97.5313,354.875 97.5313,355.1563 C97.5313,355.7188 97.1719,356 96.4219,356 L91.2813,356 C90.875,356 90.6719,355.9531 90.5156,355.8281 C90.2969,355.6719 90.1563,355.4063 90.1563,355.1563 C90.1563,354.8594 90.3125,354.5781 90.5625,354.4219 C90.7188,354.3125 90.8438,354.2969 91.2813,354.2969 L93,354.2969 L93,347.7813 L91.2813,347.7813 C90.8594,347.7813 90.6719,347.75 90.5156,347.6406 C90.2969,347.4688 90.1563,347.2188 90.1563,346.9375 C90.1563,346.6563 90.3125,346.3594 90.5625,346.2031 C90.7188,346.1094 90.8438,346.0938 91.2813,346.0938 L96.4219,346.0938 C96.875,346.0938 97.0156,346.125 97.1875,346.2344 C97.4219,346.4063 97.5313,346.6719 97.5313,346.9375 C97.5313,347.2344 97.3906,347.5156 97.125,347.6719 C97,347.75 96.8125,347.7813 96.4219,347.7813 Z "/><text fill="#000000" font-family="sans-serif" font-size="12" font-style="italic" lengthAdjust="spacingAndGlyphs" textLength="42" x="114.25" y="355.1543">Access</text><line style="stroke: #A80036; stroke-width: 1.5;" x1="7" x2="231" y1="367" y2="367"/><text fill="#000000" font-family="sans-serif" font-size="11" lengthAdjust="spacingAndGlyphs" textLength="121" x="12" y="381.2104">phoneNumber: string</text></a><a href="#phoneNumber" target="_top" title="#phoneNumber" xlink:actuate="onRequest" xlink:href="#phoneNumber" xlink:show="new" xlink:title="#phoneNumber" xlink:type="simple"><text fill="#0000FF" font-family="sans-serif" font-size="11" lengthAdjust="spacingAndGlyphs" text-decoration="underline" textLength="89" x="137" y="381.2104">#phoneNumber</text></a><text fill="#000000" font-family="sans-serif" font-size="11" lengthAdjust="spacingAndGlyphs" textLength="80" x="12" y="394.0151">price: number</text><a href="#price" target="_top" title="#price" xlink:actuate="onRequest" xlink:href="#price" xlink:show="new" xlink:title="#price" xlink:type="simple"><text fill="#0000FF" font-family="sans-serif" font-size="11" lengthAdjust="spacingAndGlyphs" text-decoration="underline" textLength="37" x="96" y="394.0151">#price</text></a><text fill="#000000" font-family="sans-serif" font-size="11" lengthAdjust="spacingAndGlyphs" textLength="94" x="12" y="406.8198">dateTime: string</text><a href="#dateTime" target="_top" title="#dateTime" xlink:actuate="onRequest" xlink:href="#dateTime" xlink:show="new" xlink:title="#dateTime" xlink:type="simple"><text fill="#0000FF" font-family="sans-serif" font-size="11" lengthAdjust="spacingAndGlyphs" text-decoration="underline" textLength="62" x="110" y="406.8198">#dateTime</text></a><line style="stroke: #A80036; stroke-width: 1.5;" x1="7" x2="231" y1="413.4141" y2="413.4141"/><!--MD5=[4d37ff7ba0ceae5cd2f46bdb37209993]
class Bill--><a href="#Bill" target="_top" title="#Bill" xlink:actuate="onRequest" xlink:href="#Bill" xlink:show="new" xlink:title="#Bill" xlink:type="simple"><rect fill="#F5DEB3" filter="url(#f13lq1qgdm9lzq)" height="99.2188" id="Bill" style="stroke: #A80036; stroke-width: 1.5;" width="270" x="561" y="159"/><rect fill="#F5DEB3" height="32" style="stroke: #A80036; stroke-width: 1.5;" width="270" x="561" y="159"/><ellipse cx="683.25" cy="175" fill="#ADD1B2" rx="11" ry="11" style="stroke: #A80036; stroke-width: 1.0;"/><path d="M685.5938,170.6719 L685.7656,170.75 C685.9844,170.4375 686.1875,170.3438 686.4844,170.3438 C686.7813,170.3438 687.0625,170.4844 687.2188,170.75 C687.3125,170.9063 687.3281,171.0313 687.3281,171.4688 L687.3281,172.8906 C687.3281,173.3125 687.2969,173.5 687.1875,173.6563 C687.0156,173.875 686.75,174.0156 686.4844,174.0156 C686.2656,174.0156 686.0313,173.9063 685.8906,173.7656 C685.75,173.6406 685.7188,173.5156 685.6563,173.1094 C685.5625,172.7031 685.3906,172.4844 684.9063,172.2031 C684.4375,171.9531 683.8281,171.7969 683.25,171.7969 C681.5156,171.7969 680.2656,173.1094 680.2656,174.8906 L680.2656,175.9844 C680.2656,177.6875 681.5625,178.7813 683.6094,178.7813 C684.375,178.7813 685.0625,178.6563 685.4844,178.3906 C685.6719,178.2969 685.6719,178.2969 686.125,177.8125 C686.3125,177.625 686.5156,177.5469 686.7344,177.5469 C687.2031,177.5469 687.5938,177.9375 687.5938,178.3906 C687.5938,178.7813 687.2656,179.2344 686.6875,179.6406 C685.9375,180.1875 684.7813,180.4844 683.5625,180.4844 C680.6719,180.4844 678.5625,178.5938 678.5625,176.0156 L678.5625,174.8906 C678.5625,172.1719 680.5625,170.0938 683.1875,170.0938 C684.0625,170.0938 684.6563,170.2344 685.5938,170.6719 Z "/><text fill="#000000" font-family="sans-serif" font-size="12" lengthAdjust="spacingAndGlyphs" textLength="17" x="703.75" y="179.1543">Bill</text><line style="stroke: #A80036; stroke-width: 1.5;" x1="562" x2="830" y1="191" y2="191"/><text fill="#000000" font-family="sans-serif" font-size="11" lengthAdjust="spacingAndGlyphs" textLength="77" x="567" y="205.2104">month: string</text></a><a href="#month" target="_top" title="#month" xlink:actuate="onRequest" xlink:href="#month" xlink:show="new" xlink:title="#month" xlink:type="simple"><text fill="#0000FF" font-family="sans-serif" font-size="11" lengthAdjust="spacingAndGlyphs" text-decoration="underline" textLength="45" x="648" y="205.2104">#month</text></a><text fill="#000000" font-family="sans-serif" font-size="11" lengthAdjust="spacingAndGlyphs" textLength="102" x="567" y="218.0151">contract: Contract</text><a href="#contract" target="_top" title="#contract" xlink:actuate="onRequest" xlink:href="#contract" xlink:show="new" xlink:title="#contract" xlink:type="simple"><text fill="#0000FF" font-family="sans-serif" font-size="11" lengthAdjust="spacingAndGlyphs" text-decoration="underline" textLength="55" x="673" y="218.0151">#contract</text></a><text fill="#000000" font-family="sans-serif" font-size="11" lengthAdjust="spacingAndGlyphs" textLength="110" x="567" y="230.8198">accesses: Access[]</text><a href="#accesses" target="_top" title="#accesses" xlink:actuate="onRequest" xlink:href="#accesses" xlink:show="new" xlink:title="#accesses" xlink:type="simple"><text fill="#0000FF" font-family="sans-serif" font-size="11" lengthAdjust="spacingAndGlyphs" text-decoration="underline" textLength="63" x="681" y="230.8198">#accesses</text></a><text fill="#000000" font-family="sans-serif" font-size="11" lengthAdjust="spacingAndGlyphs" textLength="166" x="567" y="243.6245">paymentState: PaymentState</text><a href="#paymentState" target="_top" title="#paymentState" xlink:actuate="onRequest" xlink:href="#paymentState" xlink:show="new" xlink:title="#paymentState" xlink:type="simple"><text fill="#0000FF" font-family="sans-serif" font-size="11" lengthAdjust="spacingAndGlyphs" text-decoration="underline" textLength="88" x="737" y="243.6245">#paymentState</text></a><line style="stroke: #A80036; stroke-width: 1.5;" x1="562" x2="830" y1="250.2188" y2="250.2188"/><!--MD5=[f1a6d41533bfefd499dd69711c818e15]
class BillsService--><a href="#BillsService" target="_top" title="#BillsService" xlink:actuate="onRequest" xlink:href="#BillsService" xlink:show="new" xlink:title="#BillsService" xlink:type="simple"><rect fill="#FEFECE" filter="url(#f13lq1qgdm9lzq)" height="73.6094" id="BillsService" style="stroke: #A80036; stroke-width: 1.5;" width="157" x="617.5" y="8"/><ellipse cx="658.15" cy="24" fill="#B4A7E5" rx="11" ry="11" style="stroke: #A80036; stroke-width: 1.0;"/><path d="M659.1031,20.7813 L659.1031,27.2969 L660.8219,27.2969 C661.275,27.2969 661.4156,27.3281 661.5875,27.4531 C661.8219,27.625 661.9313,27.875 661.9313,28.1563 C661.9313,28.7188 661.5719,29 660.8219,29 L655.6813,29 C655.275,29 655.0719,28.9531 654.9156,28.8281 C654.6969,28.6719 654.5563,28.4063 654.5563,28.1563 C654.5563,27.8594 654.7125,27.5781 654.9625,27.4219 C655.1188,27.3125 655.2438,27.2969 655.6813,27.2969 L657.4,27.2969 L657.4,20.7813 L655.6813,20.7813 C655.2594,20.7813 655.0719,20.75 654.9156,20.6406 C654.6969,20.4688 654.5563,20.2188 654.5563,19.9375 C654.5563,19.6563 654.7125,19.3594 654.9625,19.2031 C655.1188,19.1094 655.2438,19.0938 655.6813,19.0938 L660.8219,19.0938 C661.275,19.0938 661.4156,19.125 661.5875,19.2344 C661.8219,19.4063 661.9313,19.6719 661.9313,19.9375 C661.9313,20.2344 661.7906,20.5156 661.525,20.6719 C661.4,20.75 661.2125,20.7813 660.8219,20.7813 Z "/><text fill="#000000" font-family="sans-serif" font-size="12" font-style="italic" lengthAdjust="spacingAndGlyphs" textLength="68" x="677.85" y="28.1543">BillsService</text><line style="stroke: #A80036; stroke-width: 1.5;" x1="618.5" x2="773.5" y1="40" y2="40"/><line style="stroke: #A80036; stroke-width: 1.5;" x1="618.5" x2="773.5" y1="48" y2="48"/><text fill="#000000" font-family="sans-serif" font-size="11" lengthAdjust="spacingAndGlyphs" textLength="83" x="623.5" y="62.2104">getBills(): Bill[]</text><text fill="#000000" font-family="sans-serif" font-size="11" lengthAdjust="spacingAndGlyphs" textLength="145" x="623.5" y="75.0151">getBill(month: string): Bill</text></a><!--MD5=[880379458df43105f5fc3758001816db]
class CallAccess--><a href="#CallAccess" target="_top" title="#CallAccess" xlink:actuate="onRequest" xlink:href="#CallAccess" xlink:show="new" xlink:title="#CallAccess" xlink:type="simple"><rect fill="#FEFECE" filter="url(#f13lq1qgdm9lzq)" height="60.8047" id="CallAccess" style="stroke: #A80036; stroke-width: 1.5;" width="160" x="402" y="347.5"/><ellipse cx="445.8" cy="363.5" fill="#B4A7E5" rx="11" ry="11" style="stroke: #A80036; stroke-width: 1.0;"/><path d="M446.7531,360.2813 L446.7531,366.7969 L448.4719,366.7969 C448.925,366.7969 449.0656,366.8281 449.2375,366.9531 C449.4719,367.125 449.5813,367.375 449.5813,367.6563 C449.5813,368.2188 449.2219,368.5 448.4719,368.5 L443.3313,368.5 C442.925,368.5 442.7219,368.4531 442.5656,368.3281 C442.3469,368.1719 442.2063,367.9063 442.2063,367.6563 C442.2063,367.3594 442.3625,367.0781 442.6125,366.9219 C442.7688,366.8125 442.8938,366.7969 443.3313,366.7969 L445.05,366.7969 L445.05,360.2813 L443.3313,360.2813 C442.9094,360.2813 442.7219,360.25 442.5656,360.1406 C442.3469,359.9688 442.2063,359.7188 442.2063,359.4375 C442.2063,359.1563 442.3625,358.8594 442.6125,358.7031 C442.7688,358.6094 442.8938,358.5938 443.3313,358.5938 L448.4719,358.5938 C448.925,358.5938 449.0656,358.625 449.2375,358.7344 C449.4719,358.9063 449.5813,359.1719 449.5813,359.4375 C449.5813,359.7344 449.4406,360.0156 449.175,360.1719 C449.05,360.25 448.8625,360.2813 448.4719,360.2813 Z "/><text fill="#000000" font-family="sans-serif" font-size="12" font-style="italic" lengthAdjust="spacingAndGlyphs" textLength="64" x="466.2" y="367.6543">CallAccess</text><line style="stroke: #A80036; stroke-width: 1.5;" x1="403" x2="561" y1="379.5" y2="379.5"/><text fill="#000000" font-family="sans-serif" font-size="11" lengthAdjust="spacingAndGlyphs" textLength="88" x="408" y="393.7104">duration: string</text></a><a href="#duration" target="_top" title="#duration" xlink:actuate="onRequest" xlink:href="#duration" xlink:show="new" xlink:title="#duration" xlink:type="simple"><text fill="#0000FF" font-family="sans-serif" font-size="11" lengthAdjust="spacingAndGlyphs" text-decoration="underline" textLength="56" x="500" y="393.7104">#duration</text></a><line style="stroke: #A80036; stroke-width: 1.5;" x1="403" x2="561" y1="400.3047" y2="400.3047"/><!--MD5=[461026a38b737c4ce5e8254b9a577e21]
class Contract--><a href="#Contract" target="_top" title="#Contract" xlink:actuate="onRequest" xlink:href="#Contract" xlink:show="new" xlink:title="#Contract" xlink:type="simple"><rect fill="#FEFECE" filter="url(#f13lq1qgdm9lzq)" height="73.6094" id="Contract" style="stroke: #A80036; stroke-width: 1.5;" width="197" x="597.5" y="341"/><ellipse cx="664.75" cy="357" fill="#B4A7E5" rx="11" ry="11" style="stroke: #A80036; stroke-width: 1.0;"/><path d="M665.7031,353.7813 L665.7031,360.2969 L667.4219,360.2969 C667.875,360.2969 668.0156,360.3281 668.1875,360.4531 C668.4219,360.625 668.5313,360.875 668.5313,361.1563 C668.5313,361.7188 668.1719,362 667.4219,362 L662.2813,362 C661.875,362 661.6719,361.9531 661.5156,361.8281 C661.2969,361.6719 661.1563,361.4063 661.1563,361.1563 C661.1563,360.8594 661.3125,360.5781 661.5625,360.4219 C661.7188,360.3125 661.8438,360.2969 662.2813,360.2969 L664,360.2969 L664,353.7813 L662.2813,353.7813 C661.8594,353.7813 661.6719,353.75 661.5156,353.6406 C661.2969,353.4688 661.1563,353.2188 661.1563,352.9375 C661.1563,352.6563 661.3125,352.3594 661.5625,352.2031 C661.7188,352.1094 661.8438,352.0938 662.2813,352.0938 L667.4219,352.0938 C667.875,352.0938 668.0156,352.125 668.1875,352.2344 C668.4219,352.4063 668.5313,352.6719 668.5313,352.9375 C668.5313,353.2344 668.3906,353.5156 668.125,353.6719 C668,353.75 667.8125,353.7813 667.4219,353.7813 Z "/><text fill="#000000" font-family="sans-serif" font-size="12" font-style="italic" lengthAdjust="spacingAndGlyphs" textLength="54" x="685.25" y="361.1543">Contract</text><line style="stroke: #A80036; stroke-width: 1.5;" x1="598.5" x2="793.5" y1="373" y2="373"/><text fill="#000000" font-family="sans-serif" font-size="11" lengthAdjust="spacingAndGlyphs" textLength="62" x="603.5" y="387.2104">id: number</text></a><a href="#id" target="_top" title="#id" xlink:actuate="onRequest" xlink:href="#id" xlink:show="new" xlink:title="#id" xlink:type="simple"><text fill="#0000FF" font-family="sans-serif" font-size="11" lengthAdjust="spacingAndGlyphs" text-decoration="underline" textLength="19" x="669.5" y="387.2104">#id</text></a><text fill="#000000" font-family="sans-serif" font-size="11" lengthAdjust="spacingAndGlyphs" textLength="118" x="603.5" y="400.0151">customer: Customer</text><a href="#customer" target="_top" title="#customer" xlink:actuate="onRequest" xlink:href="#customer" xlink:show="new" xlink:title="#customer" xlink:type="simple"><text fill="#0000FF" font-family="sans-serif" font-size="11" lengthAdjust="spacingAndGlyphs" text-decoration="underline" textLength="63" x="725.5" y="400.0151">#customer</text></a><line style="stroke: #A80036; stroke-width: 1.5;" x1="598.5" x2="793.5" y1="406.6094" y2="406.6094"/><!--MD5=[2ce0c9fb7f55b1e256ab28a8ea6b25ec]
class Customer--><a href="#Customer" target="_top" title="#Customer" xlink:actuate="onRequest" xlink:href="#Customer" xlink:show="new" xlink:title="#Customer" xlink:type="simple"><rect fill="#FEFECE" filter="url(#f13lq1qgdm9lzq)" height="73.6094" id="Customer" style="stroke: #A80036; stroke-width: 1.5;" width="195" x="598.5" y="498"/><ellipse cx="662.25" cy="514" fill="#B4A7E5" rx="11" ry="11" style="stroke: #A80036; stroke-width: 1.0;"/><path d="M663.2031,510.7813 L663.2031,517.2969 L664.9219,517.2969 C665.375,517.2969 665.5156,517.3281 665.6875,517.4531 C665.9219,517.625 666.0313,517.875 666.0313,518.1563 C666.0313,518.7188 665.6719,519 664.9219,519 L659.7813,519 C659.375,519 659.1719,518.9531 659.0156,518.8281 C658.7969,518.6719 658.6563,518.4063 658.6563,518.1563 C658.6563,517.8594 658.8125,517.5781 659.0625,517.4219 C659.2188,517.3125 659.3438,517.2969 659.7813,517.2969 L661.5,517.2969 L661.5,510.7813 L659.7813,510.7813 C659.3594,510.7813 659.1719,510.75 659.0156,510.6406 C658.7969,510.4688 658.6563,510.2188 658.6563,509.9375 C658.6563,509.6563 658.8125,509.3594 659.0625,509.2031 C659.2188,509.1094 659.3438,509.0938 659.7813,509.0938 L664.9219,509.0938 C665.375,509.0938 665.5156,509.125 665.6875,509.2344 C665.9219,509.4063 666.0313,509.6719 666.0313,509.9375 C666.0313,510.2344 665.8906,510.5156 665.625,510.6719 C665.5,510.75 665.3125,510.7813 664.9219,510.7813 Z "/><text fill="#000000" font-family="sans-serif" font-size="12" font-style="italic" lengthAdjust="spacingAndGlyphs" textLength="59" x="682.75" y="518.1543">Customer</text><line style="stroke: #A80036; stroke-width: 1.5;" x1="599.5" x2="792.5" y1="530" y2="530"/><text fill="#000000" font-family="sans-serif" font-size="11" lengthAdjust="spacingAndGlyphs" textLength="72" x="604.5" y="544.2104">email: string</text></a><a href="#email" target="_top" title="#email" xlink:actuate="onRequest" xlink:href="#email" xlink:show="new" xlink:title="#email" xlink:type="simple"><text fill="#0000FF" font-family="sans-serif" font-size="11" lengthAdjust="spacingAndGlyphs" text-decoration="underline" textLength="40" x="680.5" y="544.2104">#email</text></a><text fill="#000000" font-family="sans-serif" font-size="11" lengthAdjust="spacingAndGlyphs" textLength="117" x="604.5" y="557.0151">contracts: Contract[]</text><a href="#contracts" target="_top" title="#contracts" xlink:actuate="onRequest" xlink:href="#contracts" xlink:show="new" xlink:title="#contracts" xlink:type="simple"><text fill="#0000FF" font-family="sans-serif" font-size="11" lengthAdjust="spacingAndGlyphs" text-decoration="underline" textLength="62" x="725.5" y="557.0151">#contracts</text></a><line style="stroke: #A80036; stroke-width: 1.5;" x1="599.5" x2="792.5" y1="563.6094" y2="563.6094"/><!--MD5=[23baecea0dc48fda9420f8c6e1c85951]
class PaymentState--><a href="#PaymentState" target="_top" title="#PaymentState" xlink:actuate="onRequest" xlink:href="#PaymentState" xlink:show="new" xlink:title="#PaymentState" xlink:type="simple"><rect fill="#FEFECE" filter="url(#f13lq1qgdm9lzq)" height="73.6094" id="PaymentState" style="stroke: #A80036; stroke-width: 1.5;" width="120" x="830" y="341"/><ellipse cx="845" cy="357" fill="#EB937F" rx="11" ry="11" style="stroke: #A80036; stroke-width: 1.0;"/><path d="M843.2969,357.875 L843.2969,360.2969 L847.6563,360.2969 L847.6563,359.4219 C847.6563,358.9375 847.6875,358.7969 847.7969,358.6406 C847.9688,358.3906 848.2344,358.2813 848.5,358.2813 C848.7813,358.2813 849.0625,358.4375 849.2344,358.6875 C849.3125,358.8438 849.3438,358.9844 849.3438,359.4219 L849.3438,362 L841.3438,362 C840.9531,362 840.7188,361.9531 840.5781,361.8281 C840.3594,361.6719 840.2188,361.4219 840.2188,361.1563 C840.2188,360.8594 840.375,360.5938 840.625,360.4219 C840.7813,360.3125 840.9375,360.2969 841.3438,360.2969 L841.5938,360.2969 L841.5938,353.7813 L841.3438,353.7813 C840.9219,353.7813 840.7344,353.75 840.5781,353.6406 C840.3594,353.4688 840.2188,353.2188 840.2188,352.9375 C840.2188,352.6563 840.375,352.3594 840.625,352.2031 C840.7813,352.1094 840.9063,352.0938 841.3438,352.0938 L848.9688,352.0938 L848.9688,354.6406 C848.9688,355.1094 848.9375,355.25 848.8281,355.4219 C848.6563,355.6406 848.3906,355.7813 848.125,355.7813 C847.8438,355.7813 847.5625,355.625 847.3906,355.375 C847.3125,355.2188 847.2813,355.0469 847.2813,354.6406 L847.2813,353.7813 L843.2969,353.7813 L843.2969,356.1875 L844.75,356.1875 L844.75,356.0625 C844.75,355.6094 844.7813,355.4531 844.8906,355.2813 C845.0625,355.0625 845.3281,354.9219 845.5781,354.9219 C846.0313,354.9219 846.3438,355.2344 846.4063,355.7031 C846.4219,355.8594 846.4219,355.9063 846.4219,356.0625 L846.4219,357.9844 C846.4219,358.4375 846.3906,358.5938 846.2656,358.75 C846.1094,358.9688 845.8438,359.1094 845.5938,359.1094 C845.2969,359.1094 845.0156,358.9531 844.8594,358.7031 C844.7813,358.5469 844.75,358.3906 844.75,357.9844 L844.75,357.875 Z "/><text fill="#000000" font-family="sans-serif" font-size="12" lengthAdjust="spacingAndGlyphs" textLength="88" x="859" y="361.1543">PaymentState</text><line style="stroke: #A80036; stroke-width: 1.5;" x1="831" x2="949" y1="373" y2="373"/><text fill="#000000" font-family="sans-serif" font-size="11" lengthAdjust="spacingAndGlyphs" textLength="46" x="836" y="387.2104">WAITING</text></a><a href="#WAITING" target="_top" title="#WAITING" xlink:actuate="onRequest" xlink:href="#WAITING" xlink:show="new" xlink:title="#WAITING" xlink:type="simple"><text fill="#0000FF" font-family="sans-serif" font-size="11" lengthAdjust="spacingAndGlyphs" text-decoration="underline" textLength="55" x="886" y="387.2104">#WAITING</text></a><text fill="#000000" font-family="sans-serif" font-size="11" lengthAdjust="spacingAndGlyphs" textLength="32" x="836" y="400.0151">DONE</text><a href="#DONE" target="_top" title="#DONE" xlink:actuate="onRequest" xlink:href="#DONE" xlink:show="new" xlink:title="#DONE" xlink:type="simple"><text fill="#0000FF" font-family="sans-serif" font-size="11" lengthAdjust="spacingAndGlyphs" text-decoration="underline" textLength="41" x="872" y="400.0151">#DONE</text></a><line style="stroke: #A80036; stroke-width: 1.5;" x1="831" x2="949" y1="406.6094" y2="406.6094"/><!--MD5=[31e66b479b66bd395e5f7696f35a5552]
class SmsAccess--><a href="#SmsAccess" target="_top" title="#SmsAccess" xlink:actuate="onRequest" xlink:href="#SmsAccess" xlink:show="new" xlink:title="#SmsAccess" xlink:type="simple"><rect fill="#FEFECE" filter="url(#f13lq1qgdm9lzq)" height="48" id="SmsAccess" style="stroke: #A80036; stroke-width: 1.5;" width="99" x="267.5" y="354"/><ellipse cx="282.5" cy="370" fill="#B4A7E5" rx="11" ry="11" style="stroke: #A80036; stroke-width: 1.0;"/><path d="M283.4531,366.7813 L283.4531,373.2969 L285.1719,373.2969 C285.625,373.2969 285.7656,373.3281 285.9375,373.4531 C286.1719,373.625 286.2813,373.875 286.2813,374.1563 C286.2813,374.7188 285.9219,375 285.1719,375 L280.0313,375 C279.625,375 279.4219,374.9531 279.2656,374.8281 C279.0469,374.6719 278.9063,374.4063 278.9063,374.1563 C278.9063,373.8594 279.0625,373.5781 279.3125,373.4219 C279.4688,373.3125 279.5938,373.2969 280.0313,373.2969 L281.75,373.2969 L281.75,366.7813 L280.0313,366.7813 C279.6094,366.7813 279.4219,366.75 279.2656,366.6406 C279.0469,366.4688 278.9063,366.2188 278.9063,365.9375 C278.9063,365.6563 279.0625,365.3594 279.3125,365.2031 C279.4688,365.1094 279.5938,365.0938 280.0313,365.0938 L285.1719,365.0938 C285.625,365.0938 285.7656,365.125 285.9375,365.2344 C286.1719,365.4063 286.2813,365.6719 286.2813,365.9375 C286.2813,366.2344 286.1406,366.5156 285.875,366.6719 C285.75,366.75 285.5625,366.7813 285.1719,366.7813 Z "/><text fill="#000000" font-family="sans-serif" font-size="12" font-style="italic" lengthAdjust="spacingAndGlyphs" textLength="67" x="296.5" y="374.1543">SmsAccess</text><line style="stroke: #A80036; stroke-width: 1.5;" x1="268.5" x2="365.5" y1="386" y2="386"/><line style="stroke: #A80036; stroke-width: 1.5;" x1="268.5" x2="365.5" y1="394" y2="394"/></a><!--MD5=[6f5f88b2dfd8ca7b17fefaeb7ae4e9ed]
reverse link Access to CallAccess--><path d="M198.544,324.872 C220.041,313.212 243.909,302.548 267.5,296.5 C310.122,285.573 324.561,283.193 366.5,296.5 C398.08,306.52 428.472,328.637 450.148,347.305 " fill="none" id="Access&lt;-CallAccess" style="stroke: #A80036; stroke-width: 1.0;"/><polygon fill="none" points="201.943,330.992,181.102,334.821,195.006,318.831,201.943,330.992" style="stroke: #A80036; stroke-width: 1.0;"/><!--MD5=[ca51bfe040981cf96901c76cb0a526d2]
reverse link Access to SmsAccess--><path d="M252.582,378 C257.513,378 262.445,378 267.376,378 " fill="none" id="Access&lt;-SmsAccess" style="stroke: #A80036; stroke-width: 1.0;"/><polygon fill="none" points="252.309,385,232.309,378,252.309,371,252.309,385" style="stroke: #A80036; stroke-width: 1.0;"/><!--MD5=[e5ff7d02f1a7841732df03208159d291]
link Bill to Access--><path d="M560.967,246.138 C472.328,270.522 353.986,303.711 250,335 C245.717,336.289 241.36,337.614 236.962,338.962 " fill="none" id="Bill-&gt;Access" style="stroke: #A80036; stroke-width: 1.0;"/><polygon fill="#A80036" points="232.176,340.435,241.9543,341.612,236.955,338.9649,239.6021,333.9656,232.176,340.435" style="stroke: #A80036; stroke-width: 1.0;"/><text fill="#000000" font-family="sans-serif" font-size="13" lengthAdjust="spacingAndGlyphs" textLength="59" x="410" y="301.0669">accesses</text><text fill="#000000" font-family="sans-serif" font-size="13" lengthAdjust="spacingAndGlyphs" textLength="7" x="240.0152" y="334.4646">*</text><!--MD5=[b7a6ca84e9226637305a49885643a805]
link Bill to Contract--><path d="M696,258.398 C696,282.906 696,312.26 696,335.634 " fill="none" id="Bill-&gt;Contract" style="stroke: #A80036; stroke-width: 1.0;"/><polygon fill="#A80036" points="696,340.83,700,331.83,696,335.83,692,331.83,696,340.83" style="stroke: #A80036; stroke-width: 1.0;"/><text fill="#000000" font-family="sans-serif" font-size="13" lengthAdjust="spacingAndGlyphs" textLength="53" x="697" y="301.0669">contract</text><!--MD5=[d572f0324f187b684bbf209d9de6228a]
link Bill to PaymentState--><path d="M752.373,258.173 C781.59,283.398 816.808,313.806 844.304,337.546 " fill="none" id="Bill-&gt;PaymentState" style="stroke: #A80036; stroke-width: 1.0;"/><polygon fill="#A80036" points="848.303,340.999,844.1046,332.0898,844.5183,337.7315,838.8766,338.1453,848.303,340.999" style="stroke: #A80036; stroke-width: 1.0;"/><text fill="#000000" font-family="sans-serif" font-size="13" lengthAdjust="spacingAndGlyphs" textLength="92" x="806" y="301.0669">paymentState</text><!--MD5=[ec00efe55f34d75c5becf3947a529335]
link BillsService to Bill--><path d="M696,82.244 C696,104.843 696,134.205 696,158.82 " fill="none" id="BillsService-Bill" style="stroke: #A80036; stroke-width: 1.0;"/><text fill="#000000" font-family="sans-serif" font-size="13" lengthAdjust="spacingAndGlyphs" textLength="23" x="697" y="125.0669">use</text><!--MD5=[6a0c816ed4225dd335dfd1cbbe9e3505]
link Contract to Customer--><path d="M661.809,415.218 C653.738,425.944 646.249,438.252 642,451 C637.067,465.799 642.416,480.535 651.377,493.3933 " fill="none" id="Contract-&gt;Customer" style="stroke: #A80036; stroke-width: 1.0;"/><polygon fill="#A80036" points="654.545,497.6793,652.4127,488.064,651.5733,493.6582,645.9791,492.8188,654.545,497.6793" style="stroke: #A80036; stroke-width: 1.0;"/><text fill="#000000" font-family="sans-serif" font-size="13" lengthAdjust="spacingAndGlyphs" textLength="61" x="643" y="464.0669">customer</text><!--MD5=[fb8596f12b2df2b260b2a29b4bb09f08]
link Customer to Contract--><path d="M704.43,497.8769 C706.321,488.2258 708.048,477.7636 709,468 C710.526,452.361 708.843,435.266 706.239,420.276 " fill="none" id="Customer-&gt;Contract" style="stroke: #A80036; stroke-width: 1.0;"/><polygon fill="#A80036" points="705.324,415.278,703.0093,424.851,706.224,420.1963,710.8786,423.411,705.324,415.278" style="stroke: #A80036; stroke-width: 1.0;"/><text fill="#000000" font-family="sans-serif" font-size="13" lengthAdjust="spacingAndGlyphs" textLength="60" x="711" y="464.0669">contracts</text><text fill="#000000" font-family="sans-serif" font-size="13" lengthAdjust="spacingAndGlyphs" textLength="7" x="699.2886" y="434.8046">*</text><!--MD5=[688c544c848b7cd912d6329807455a34]
@startuml
interface Access [[#Access]] {
  phoneNumber: string [[#phoneNumber]]
  price: number [[#price]]
  dateTime: string [[#dateTime]]
}

class Bill [[#Bill]] #wheat {
  month: string [[#month]]
  contract: Contract [[#contract]]
  accesses: Access[] [[#accesses]]
  paymentState: PaymentState [[#paymentState]]
}

interface BillsService [[#BillsService]] {
  getBills(): Bill[]
  getBill(month: string): Bill
}

interface CallAccess [[#CallAccess]] {
  duration: string [[#duration]]
}

interface Contract [[#Contract]] {
  id: number [[#id]]
  customer: Customer [[#customer]]
}

interface Customer [[#Customer]] {
  email: string [[#email]]
  contracts: Contract[] [[#contracts]]
}

enum PaymentState [[#PaymentState]] {
  WAITING [[#WAITING]]
  DONE [[#DONE]]
}

interface SmsAccess [[#SmsAccess]]

Access <|- CallAccess
Access <|- SmsAccess
Bill - -> "*" Access: accesses
Bill - -> Contract: contract
Bill - -> PaymentState: paymentState
BillsService - - Bill: use
Contract - -> Customer: customer
Customer - -> "*" Contract: contracts
@enduml

PlantUML version 1.2020.02(Sun Mar 01 10:22:07 UTC 2020)
(GPL source distribution)
Java Runtime: Java(TM) SE Runtime Environment
JVM: Java HotSpot(TM) 64-Bit Server VM
Java Version: 1.7.0_25-b15
Operating System: Linux
Default Encoding: UTF-8
Language: en
Country: US
--></g></svg>