<?xml version="1.0" encoding="UTF-8" standalone="no"?><svg xmlns="http://www.w3.org/2000/svg" xmlns:xlink="http://www.w3.org/1999/xlink" contentScriptType="application/ecmascript" contentStyleType="text/css" height="431px" preserveAspectRatio="none" style="width:739px;height:431px;" version="1.1" viewBox="0 0 739 431" width="739px" zoomAndPan="magnify"><defs><filter height="300%" id="f1i2aerz3xmh8f" width="300%" x="-1" y="-1"><feGaussianBlur result="blurOut" stdDeviation="2.0"/><feColorMatrix in="blurOut" result="blurOut2" type="matrix" values="0 0 0 0 0 0 0 0 0 0 0 0 0 0 0 0 0 0 .4 0"/><feOffset dx="4.0" dy="4.0" in="blurOut2" result="blurOut3"/><feBlend in="SourceGraphic" in2="blurOut3" mode="normal"/></filter></defs><g><!--MD5=[dab16d122782a892ddb6ee0eadcd68f0]
class Access--><rect fill="#FEFECE" filter="url(#f1i2aerz3xmh8f)" height="86.4141" id="Access" style="stroke: #A80036; stroke-width: 1.5;" width="133" x="6" y="184"/><ellipse cx="47.55" cy="200" fill="#B4A7E5" rx="11" ry="11" style="stroke: #A80036; stroke-width: 1.0;"/><path d="M48.5031,196.7813 L48.5031,203.2969 L50.2219,203.2969 C50.675,203.2969 50.8156,203.3281 50.9875,203.4531 C51.2219,203.625 51.3313,203.875 51.3313,204.1563 C51.3313,204.7188 50.9719,205 50.2219,205 L45.0813,205 C44.675,205 44.4719,204.9531 44.3156,204.8281 C44.0969,204.6719 43.9563,204.4063 43.9563,204.1563 C43.9563,203.8594 44.1125,203.5781 44.3625,203.4219 C44.5188,203.3125 44.6438,203.2969 45.0813,203.2969 L46.8,203.2969 L46.8,196.7813 L45.0813,196.7813 C44.6594,196.7813 44.4719,196.75 44.3156,196.6406 C44.0969,196.4688 43.9563,196.2188 43.9563,195.9375 C43.9563,195.6563 44.1125,195.3594 44.3625,195.2031 C44.5188,195.1094 44.6438,195.0938 45.0813,195.0938 L50.2219,195.0938 C50.675,195.0938 50.8156,195.125 50.9875,195.2344 C51.2219,195.4063 51.3313,195.6719 51.3313,195.9375 C51.3313,196.2344 51.1906,196.5156 50.925,196.6719 C50.8,196.75 50.6125,196.7813 50.2219,196.7813 Z "/><text fill="#000000" font-family="sans-serif" font-size="12" font-style="italic" lengthAdjust="spacingAndGlyphs" textLength="42" x="67.45" y="204.1543">Access</text><line style="stroke: #A80036; stroke-width: 1.5;" x1="7" x2="138" y1="216" y2="216"/><text fill="#000000" font-family="sans-serif" font-size="11" lengthAdjust="spacingAndGlyphs" textLength="121" x="12" y="230.2104">phoneNumber: string</text><text fill="#000000" font-family="sans-serif" font-size="11" lengthAdjust="spacingAndGlyphs" textLength="80" x="12" y="243.0151">price: number</text><text fill="#000000" font-family="sans-serif" font-size="11" lengthAdjust="spacingAndGlyphs" textLength="94" x="12" y="255.8198">dateTime: string</text><line style="stroke: #A80036; stroke-width: 1.5;" x1="7" x2="138" y1="262.4141" y2="262.4141"/><!--MD5=[4d37ff7ba0ceae5cd2f46bdb37209993]
class Bill--><rect fill="#FEFECE" filter="url(#f1i2aerz3xmh8f)" height="99.2188" id="Bill" style="stroke: #A80036; stroke-width: 1.5;" width="178" x="419.5" y="8"/><ellipse cx="495.75" cy="24" fill="#B4A7E5" rx="11" ry="11" style="stroke: #A80036; stroke-width: 1.0;"/><path d="M496.7031,20.7813 L496.7031,27.2969 L498.4219,27.2969 C498.875,27.2969 499.0156,27.3281 499.1875,27.4531 C499.4219,27.625 499.5313,27.875 499.5313,28.1563 C499.5313,28.7188 499.1719,29 498.4219,29 L493.2813,29 C492.875,29 492.6719,28.9531 492.5156,28.8281 C492.2969,28.6719 492.1563,28.4063 492.1563,28.1563 C492.1563,27.8594 492.3125,27.5781 492.5625,27.4219 C492.7188,27.3125 492.8438,27.2969 493.2813,27.2969 L495,27.2969 L495,20.7813 L493.2813,20.7813 C492.8594,20.7813 492.6719,20.75 492.5156,20.6406 C492.2969,20.4688 492.1563,20.2188 492.1563,19.9375 C492.1563,19.6563 492.3125,19.3594 492.5625,19.2031 C492.7188,19.1094 492.8438,19.0938 493.2813,19.0938 L498.4219,19.0938 C498.875,19.0938 499.0156,19.125 499.1875,19.2344 C499.4219,19.4063 499.5313,19.6719 499.5313,19.9375 C499.5313,20.2344 499.3906,20.5156 499.125,20.6719 C499,20.75 498.8125,20.7813 498.4219,20.7813 Z "/><text fill="#000000" font-family="sans-serif" font-size="12" font-style="italic" lengthAdjust="spacingAndGlyphs" textLength="17" x="516.25" y="28.1543">Bill</text><line style="stroke: #A80036; stroke-width: 1.5;" x1="420.5" x2="596.5" y1="40" y2="40"/><text fill="#000000" font-family="sans-serif" font-size="11" lengthAdjust="spacingAndGlyphs" textLength="77" x="425.5" y="54.2104">month: string</text><text fill="#000000" font-family="sans-serif" font-size="11" lengthAdjust="spacingAndGlyphs" textLength="102" x="425.5" y="67.0151">contract: Contract</text><text fill="#000000" font-family="sans-serif" font-size="11" lengthAdjust="spacingAndGlyphs" textLength="110" x="425.5" y="79.8198">accesses: Access[]</text><text fill="#000000" font-family="sans-serif" font-size="11" lengthAdjust="spacingAndGlyphs" textLength="166" x="425.5" y="92.6245">paymentState: PaymentState</text><line style="stroke: #A80036; stroke-width: 1.5;" x1="420.5" x2="596.5" y1="99.2188" y2="99.2188"/><!--MD5=[880379458df43105f5fc3758001816db]
class CallAccess--><rect fill="#FEFECE" filter="url(#f1i2aerz3xmh8f)" height="60.8047" id="CallAccess" style="stroke: #A80036; stroke-width: 1.5;" width="100" x="308.5" y="196.5"/><ellipse cx="325.3" cy="212.5" fill="#B4A7E5" rx="11" ry="11" style="stroke: #A80036; stroke-width: 1.0;"/><path d="M326.2531,209.2813 L326.2531,215.7969 L327.9719,215.7969 C328.425,215.7969 328.5656,215.8281 328.7375,215.9531 C328.9719,216.125 329.0813,216.375 329.0813,216.6563 C329.0813,217.2188 328.7219,217.5 327.9719,217.5 L322.8313,217.5 C322.425,217.5 322.2219,217.4531 322.0656,217.3281 C321.8469,217.1719 321.7063,216.9063 321.7063,216.6563 C321.7063,216.3594 321.8625,216.0781 322.1125,215.9219 C322.2688,215.8125 322.3938,215.7969 322.8313,215.7969 L324.55,215.7969 L324.55,209.2813 L322.8313,209.2813 C322.4094,209.2813 322.2219,209.25 322.0656,209.1406 C321.8469,208.9688 321.7063,208.7188 321.7063,208.4375 C321.7063,208.1563 321.8625,207.8594 322.1125,207.7031 C322.2688,207.6094 322.3938,207.5938 322.8313,207.5938 L327.9719,207.5938 C328.425,207.5938 328.5656,207.625 328.7375,207.7344 C328.9719,207.9063 329.0813,208.1719 329.0813,208.4375 C329.0813,208.7344 328.9406,209.0156 328.675,209.1719 C328.55,209.25 328.3625,209.2813 327.9719,209.2813 Z "/><text fill="#000000" font-family="sans-serif" font-size="12" font-style="italic" lengthAdjust="spacingAndGlyphs" textLength="64" x="339.7" y="216.6543">CallAccess</text><line style="stroke: #A80036; stroke-width: 1.5;" x1="309.5" x2="407.5" y1="228.5" y2="228.5"/><text fill="#000000" font-family="sans-serif" font-size="11" lengthAdjust="spacingAndGlyphs" textLength="88" x="314.5" y="242.7104">duration: string</text><line style="stroke: #A80036; stroke-width: 1.5;" x1="309.5" x2="407.5" y1="249.3047" y2="249.3047"/><!--MD5=[461026a38b737c4ce5e8254b9a577e21]
class Contract--><rect fill="#FEFECE" filter="url(#f1i2aerz3xmh8f)" height="73.6094" id="Contract" style="stroke: #A80036; stroke-width: 1.5;" width="130" x="443.5" y="190"/><ellipse cx="478.3" cy="206" fill="#B4A7E5" rx="11" ry="11" style="stroke: #A80036; stroke-width: 1.0;"/><path d="M479.2531,202.7813 L479.2531,209.2969 L480.9719,209.2969 C481.425,209.2969 481.5656,209.3281 481.7375,209.4531 C481.9719,209.625 482.0813,209.875 482.0813,210.1563 C482.0813,210.7188 481.7219,211 480.9719,211 L475.8313,211 C475.425,211 475.2219,210.9531 475.0656,210.8281 C474.8469,210.6719 474.7063,210.4063 474.7063,210.1563 C474.7063,209.8594 474.8625,209.5781 475.1125,209.4219 C475.2688,209.3125 475.3938,209.2969 475.8313,209.2969 L477.55,209.2969 L477.55,202.7813 L475.8313,202.7813 C475.4094,202.7813 475.2219,202.75 475.0656,202.6406 C474.8469,202.4688 474.7063,202.2188 474.7063,201.9375 C474.7063,201.6563 474.8625,201.3594 475.1125,201.2031 C475.2688,201.1094 475.3938,201.0938 475.8313,201.0938 L480.9719,201.0938 C481.425,201.0938 481.5656,201.125 481.7375,201.2344 C481.9719,201.4063 482.0813,201.6719 482.0813,201.9375 C482.0813,202.2344 481.9406,202.5156 481.675,202.6719 C481.55,202.75 481.3625,202.7813 480.9719,202.7813 Z "/><text fill="#000000" font-family="sans-serif" font-size="12" font-style="italic" lengthAdjust="spacingAndGlyphs" textLength="54" x="496.7" y="210.1543">Contract</text><line style="stroke: #A80036; stroke-width: 1.5;" x1="444.5" x2="572.5" y1="222" y2="222"/><text fill="#000000" font-family="sans-serif" font-size="11" lengthAdjust="spacingAndGlyphs" textLength="62" x="449.5" y="236.2104">id: number</text><text fill="#000000" font-family="sans-serif" font-size="11" lengthAdjust="spacingAndGlyphs" textLength="118" x="449.5" y="249.0151">customer: Customer</text><line style="stroke: #A80036; stroke-width: 1.5;" x1="444.5" x2="572.5" y1="255.6094" y2="255.6094"/><!--MD5=[2ce0c9fb7f55b1e256ab28a8ea6b25ec]
class Customer--><rect fill="#FEFECE" filter="url(#f1i2aerz3xmh8f)" height="73.6094" id="Customer" style="stroke: #A80036; stroke-width: 1.5;" width="129" x="443" y="347"/><ellipse cx="475.1" cy="363" fill="#B4A7E5" rx="11" ry="11" style="stroke: #A80036; stroke-width: 1.0;"/><path d="M476.0531,359.7813 L476.0531,366.2969 L477.7719,366.2969 C478.225,366.2969 478.3656,366.3281 478.5375,366.4531 C478.7719,366.625 478.8813,366.875 478.8813,367.1563 C478.8813,367.7188 478.5219,368 477.7719,368 L472.6313,368 C472.225,368 472.0219,367.9531 471.8656,367.8281 C471.6469,367.6719 471.5063,367.4063 471.5063,367.1563 C471.5063,366.8594 471.6625,366.5781 471.9125,366.4219 C472.0688,366.3125 472.1938,366.2969 472.6313,366.2969 L474.35,366.2969 L474.35,359.7813 L472.6313,359.7813 C472.2094,359.7813 472.0219,359.75 471.8656,359.6406 C471.6469,359.4688 471.5063,359.2188 471.5063,358.9375 C471.5063,358.6563 471.6625,358.3594 471.9125,358.2031 C472.0688,358.1094 472.1938,358.0938 472.6313,358.0938 L477.7719,358.0938 C478.225,358.0938 478.3656,358.125 478.5375,358.2344 C478.7719,358.4063 478.8813,358.6719 478.8813,358.9375 C478.8813,359.2344 478.7406,359.5156 478.475,359.6719 C478.35,359.75 478.1625,359.7813 477.7719,359.7813 Z "/><text fill="#000000" font-family="sans-serif" font-size="12" font-style="italic" lengthAdjust="spacingAndGlyphs" textLength="59" x="492.9" y="367.1543">Customer</text><line style="stroke: #A80036; stroke-width: 1.5;" x1="444" x2="571" y1="379" y2="379"/><text fill="#000000" font-family="sans-serif" font-size="11" lengthAdjust="spacingAndGlyphs" textLength="72" x="449" y="393.2104">email: string</text><text fill="#000000" font-family="sans-serif" font-size="11" lengthAdjust="spacingAndGlyphs" textLength="117" x="449" y="406.0151">contracts: Contract[]</text><line style="stroke: #A80036; stroke-width: 1.5;" x1="444" x2="571" y1="412.6094" y2="412.6094"/><!--MD5=[23baecea0dc48fda9420f8c6e1c85951]
class PaymentState--><rect fill="#FEFECE" filter="url(#f1i2aerz3xmh8f)" height="73.6094" id="PaymentState" style="stroke: #A80036; stroke-width: 1.5;" width="120" x="608.5" y="190"/><ellipse cx="623.5" cy="206" fill="#EB937F" rx="11" ry="11" style="stroke: #A80036; stroke-width: 1.0;"/><path d="M621.7969,206.875 L621.7969,209.2969 L626.1563,209.2969 L626.1563,208.4219 C626.1563,207.9375 626.1875,207.7969 626.2969,207.6406 C626.4688,207.3906 626.7344,207.2813 627,207.2813 C627.2813,207.2813 627.5625,207.4375 627.7344,207.6875 C627.8125,207.8438 627.8438,207.9844 627.8438,208.4219 L627.8438,211 L619.8438,211 C619.4531,211 619.2188,210.9531 619.0781,210.8281 C618.8594,210.6719 618.7188,210.4219 618.7188,210.1563 C618.7188,209.8594 618.875,209.5938 619.125,209.4219 C619.2813,209.3125 619.4375,209.2969 619.8438,209.2969 L620.0938,209.2969 L620.0938,202.7813 L619.8438,202.7813 C619.4219,202.7813 619.2344,202.75 619.0781,202.6406 C618.8594,202.4688 618.7188,202.2188 618.7188,201.9375 C618.7188,201.6563 618.875,201.3594 619.125,201.2031 C619.2813,201.1094 619.4063,201.0938 619.8438,201.0938 L627.4688,201.0938 L627.4688,203.6406 C627.4688,204.1094 627.4375,204.25 627.3281,204.4219 C627.1563,204.6406 626.8906,204.7813 626.625,204.7813 C626.3438,204.7813 626.0625,204.625 625.8906,204.375 C625.8125,204.2188 625.7813,204.0469 625.7813,203.6406 L625.7813,202.7813 L621.7969,202.7813 L621.7969,205.1875 L623.25,205.1875 L623.25,205.0625 C623.25,204.6094 623.2813,204.4531 623.3906,204.2813 C623.5625,204.0625 623.8281,203.9219 624.0781,203.9219 C624.5313,203.9219 624.8438,204.2344 624.9063,204.7031 C624.9219,204.8594 624.9219,204.9063 624.9219,205.0625 L624.9219,206.9844 C624.9219,207.4375 624.8906,207.5938 624.7656,207.75 C624.6094,207.9688 624.3438,208.1094 624.0938,208.1094 C623.7969,208.1094 623.5156,207.9531 623.3594,207.7031 C623.2813,207.5469 623.25,207.3906 623.25,206.9844 L623.25,206.875 Z "/><text fill="#000000" font-family="sans-serif" font-size="12" lengthAdjust="spacingAndGlyphs" textLength="88" x="637.5" y="210.1543">PaymentState</text><line style="stroke: #A80036; stroke-width: 1.5;" x1="609.5" x2="727.5" y1="222" y2="222"/><text fill="#000000" font-family="sans-serif" font-size="11" lengthAdjust="spacingAndGlyphs" textLength="46" x="614.5" y="236.2104">WAITING</text><text fill="#000000" font-family="sans-serif" font-size="11" lengthAdjust="spacingAndGlyphs" textLength="32" x="614.5" y="249.0151">DONE</text><line style="stroke: #A80036; stroke-width: 1.5;" x1="609.5" x2="727.5" y1="255.6094" y2="255.6094"/><!--MD5=[31e66b479b66bd395e5f7696f35a5552]
class SmsAccess--><rect fill="#FEFECE" filter="url(#f1i2aerz3xmh8f)" height="48" id="SmsAccess" style="stroke: #A80036; stroke-width: 1.5;" width="99" x="174" y="203"/><ellipse cx="189" cy="219" fill="#B4A7E5" rx="11" ry="11" style="stroke: #A80036; stroke-width: 1.0;"/><path d="M189.9531,215.7813 L189.9531,222.2969 L191.6719,222.2969 C192.125,222.2969 192.2656,222.3281 192.4375,222.4531 C192.6719,222.625 192.7813,222.875 192.7813,223.1563 C192.7813,223.7188 192.4219,224 191.6719,224 L186.5313,224 C186.125,224 185.9219,223.9531 185.7656,223.8281 C185.5469,223.6719 185.4063,223.4063 185.4063,223.1563 C185.4063,222.8594 185.5625,222.5781 185.8125,222.4219 C185.9688,222.3125 186.0938,222.2969 186.5313,222.2969 L188.25,222.2969 L188.25,215.7813 L186.5313,215.7813 C186.1094,215.7813 185.9219,215.75 185.7656,215.6406 C185.5469,215.4688 185.4063,215.2188 185.4063,214.9375 C185.4063,214.6563 185.5625,214.3594 185.8125,214.2031 C185.9688,214.1094 186.0938,214.0938 186.5313,214.0938 L191.6719,214.0938 C192.125,214.0938 192.2656,214.125 192.4375,214.2344 C192.6719,214.4063 192.7813,214.6719 192.7813,214.9375 C192.7813,215.2344 192.6406,215.5156 192.375,215.6719 C192.25,215.75 192.0625,215.7813 191.6719,215.7813 Z "/><text fill="#000000" font-family="sans-serif" font-size="12" font-style="italic" lengthAdjust="spacingAndGlyphs" textLength="67" x="203" y="223.1543">SmsAccess</text><line style="stroke: #A80036; stroke-width: 1.5;" x1="175" x2="272" y1="235" y2="235"/><line style="stroke: #A80036; stroke-width: 1.5;" x1="175" x2="272" y1="243" y2="243"/><!--MD5=[6f5f88b2dfd8ca7b17fefaeb7ae4e9ed]
reverse link Access to CallAccess--><path d="M129.184,170.676 C142.823,160.362 158.086,151.098 174,145.5 C215.507,130.898 232.151,129.15 273,145.5 C298.702,155.787 321.073,177.889 336.479,196.484 " fill="none" id="Access&lt;-CallAccess" style="stroke: #A80036; stroke-width: 1.0;"/><polygon fill="none" points="133.322,176.335,113.418,183.604,124.445,165.51,133.322,176.335" style="stroke: #A80036; stroke-width: 1.0;"/><!--MD5=[ca51bfe040981cf96901c76cb0a526d2]
reverse link Access to SmsAccess--><path d="M159.153,227 C164.018,227 168.883,227 173.748,227 " fill="none" id="Access&lt;-SmsAccess" style="stroke: #A80036; stroke-width: 1.0;"/><polygon fill="none" points="159.152,234,139.152,227,159.152,220,159.152,234" style="stroke: #A80036; stroke-width: 1.0;"/><!--MD5=[e5ff7d02f1a7841732df03208159d291]
link Bill to Access--><path d="M419.479,86.914 C347.622,110.641 244.379,146.528 156.5,184 C152.315,185.785 148.044,187.679 143.755,189.639 " fill="none" id="Bill-&gt;Access" style="stroke: #A80036; stroke-width: 1.0;"/><polygon fill="#A80036" points="139.098,191.788,148.9459,191.6477,143.6377,189.6924,145.593,184.3843,139.098,191.788" style="stroke: #A80036; stroke-width: 1.0;"/><text fill="#000000" font-family="sans-serif" font-size="13" lengthAdjust="spacingAndGlyphs" textLength="59" x="272.5" y="150.0669">accesses</text><text fill="#000000" font-family="sans-serif" font-size="13" lengthAdjust="spacingAndGlyphs" textLength="7" x="147.2031" y="183.9001">*</text><!--MD5=[b7a6ca84e9226637305a49885643a805]
link Bill to Contract--><path d="M508.5,107.398 C508.5,131.906 508.5,161.26 508.5,184.634 " fill="none" id="Bill-&gt;Contract" style="stroke: #A80036; stroke-width: 1.0;"/><polygon fill="#A80036" points="508.5,189.83,512.5,180.83,508.5,184.83,504.5,180.83,508.5,189.83" style="stroke: #A80036; stroke-width: 1.0;"/><text fill="#000000" font-family="sans-serif" font-size="13" lengthAdjust="spacingAndGlyphs" textLength="53" x="509.5" y="150.0669">contract</text><!--MD5=[d572f0324f187b684bbf209d9de6228a]
link Bill to PaymentState--><path d="M555.209,107.398 C579.111,132.421 607.839,162.496 630.386,186.099 " fill="none" id="Bill-&gt;PaymentState" style="stroke: #A80036; stroke-width: 1.0;"/><polygon fill="#A80036" points="633.949,189.83,630.6242,180.5593,630.4951,186.2147,624.8397,186.0856,633.949,189.83" style="stroke: #A80036; stroke-width: 1.0;"/><text fill="#000000" font-family="sans-serif" font-size="13" lengthAdjust="spacingAndGlyphs" textLength="92" x="599.5" y="150.0669">paymentState</text><!--MD5=[6a0c816ed4225dd335dfd1cbbe9e3505]
link Contract to Customer--><path d="M473.685,264.13 C465.464,274.855 457.834,287.186 453.5,300 C448.502,314.777 453.832,329.5067 462.796,342.3659 " fill="none" id="Contract-&gt;Customer" style="stroke: #A80036; stroke-width: 1.0;"/><polygon fill="#A80036" points="465.965,346.6525,463.8316,337.0375,462.9928,342.6318,457.3985,341.793,465.965,346.6525" style="stroke: #A80036; stroke-width: 1.0;"/><text fill="#000000" font-family="sans-serif" font-size="13" lengthAdjust="spacingAndGlyphs" textLength="61" x="454.5" y="313.0669">customer</text><!--MD5=[fb8596f12b2df2b260b2a29b4bb09f08]
link Customer to Contract--><path d="M515.93,346.8769 C517.821,337.2258 519.548,326.7636 520.5,317 C522.023,301.385 520.495,284.295 518.079,269.302 " fill="none" id="Customer-&gt;Contract" style="stroke: #A80036; stroke-width: 1.0;"/><polygon fill="#A80036" points="517.228,264.303,514.7943,273.8464,518.0667,269.2322,522.6809,272.5046,517.228,264.303" style="stroke: #A80036; stroke-width: 1.0;"/><text fill="#000000" font-family="sans-serif" font-size="13" lengthAdjust="spacingAndGlyphs" textLength="60" x="522.5" y="313.0669">contracts</text><text fill="#000000" font-family="sans-serif" font-size="13" lengthAdjust="spacingAndGlyphs" textLength="7" x="511.0612" y="283.5521">*</text><!--MD5=[cd83b0050de39d0d26bb0e70b797602d]
@startuml
interface Access {
  phoneNumber: string
  price: number
  dateTime: string
}

interface Bill {
  month: string
  contract: Contract
  accesses: Access[]
  paymentState: PaymentState
}

interface CallAccess {
  duration: string
}

interface Contract {
  id: number
  customer: Customer
}

interface Customer {
  email: string
  contracts: Contract[]
}

enum PaymentState {
  WAITING
  DONE
}

interface SmsAccess

Access <|- CallAccess
Access <|- SmsAccess
Bill - -> "*" Access: accesses
Bill - -> Contract: contract
Bill - -> PaymentState: paymentState
Contract - -> Customer: customer
Customer - -> "*" Contract: contracts
@enduml

PlantUML version 1.2020.02(Sun Mar 01 10:22:07 UTC 2020)
(GPL source distribution)
Java Runtime: Java(TM) SE Runtime Environment
JVM: Java HotSpot(TM) 64-Bit Server VM
Java Version: 1.7.0_25-b15
Operating System: Linux
Default Encoding: UTF-8
Language: en
Country: US
--></g></svg>