<?xml version="1.0" encoding="UTF-8" standalone="no"?><svg xmlns="http://www.w3.org/2000/svg" xmlns:xlink="http://www.w3.org/1999/xlink" contentScriptType="application/ecmascript" contentStyleType="text/css" height="493px" preserveAspectRatio="none" style="width:435px;height:493px;" version="1.1" viewBox="0 0 435 493" width="435px" zoomAndPan="magnify"><defs><filter height="300%" id="fd1rhvrws7ee0" width="300%" x="-1" y="-1"><feGaussianBlur result="blurOut" stdDeviation="2.0"/><feColorMatrix in="blurOut" result="blurOut2" type="matrix" values="0 0 0 0 0 0 0 0 0 0 0 0 0 0 0 0 0 0 .4 0"/><feOffset dx="4.0" dy="4.0" in="blurOut2" result="blurOut3"/><feBlend in="SourceGraphic" in2="blurOut3" mode="normal"/></filter></defs><g><!--MD5=[d44e31cd7b20208d43cfec039b80adbd]
class MyRootIdentity--><rect fill="#FEFECE" filter="url(#fd1rhvrws7ee0)" height="60.8047" id="MyRootIdentity" style="stroke: #A80036; stroke-width: 1.5;" width="126" x="6" y="363.5"/><ellipse cx="21" cy="379.5" fill="#B4A7E5" rx="11" ry="11" style="stroke: #A80036; stroke-width: 1.0;"/><path d="M21.9531,376.2813 L21.9531,382.7969 L23.6719,382.7969 C24.125,382.7969 24.2656,382.8281 24.4375,382.9531 C24.6719,383.125 24.7813,383.375 24.7813,383.6563 C24.7813,384.2188 24.4219,384.5 23.6719,384.5 L18.5313,384.5 C18.125,384.5 17.9219,384.4531 17.7656,384.3281 C17.5469,384.1719 17.4063,383.9063 17.4063,383.6563 C17.4063,383.3594 17.5625,383.0781 17.8125,382.9219 C17.9688,382.8125 18.0938,382.7969 18.5313,382.7969 L20.25,382.7969 L20.25,376.2813 L18.5313,376.2813 C18.1094,376.2813 17.9219,376.25 17.7656,376.1406 C17.5469,375.9688 17.4063,375.7188 17.4063,375.4375 C17.4063,375.1563 17.5625,374.8594 17.8125,374.7031 C17.9688,374.6094 18.0938,374.5938 18.5313,374.5938 L23.6719,374.5938 C24.125,374.5938 24.2656,374.625 24.4375,374.7344 C24.6719,374.9063 24.7813,375.1719 24.7813,375.4375 C24.7813,375.7344 24.6406,376.0156 24.375,376.1719 C24.25,376.25 24.0625,376.2813 23.6719,376.2813 Z "/><text fill="#000000" font-family="sans-serif" font-size="12" font-style="italic" lengthAdjust="spacingAndGlyphs" textLength="94" x="35" y="383.6543">MyRootIdentity</text><line style="stroke: #A80036; stroke-width: 1.5;" x1="7" x2="131" y1="395.5" y2="395.5"/><text fill="#000000" font-family="sans-serif" font-size="11" lengthAdjust="spacingAndGlyphs" textLength="71" x="12" y="409.7104">value: string</text><line style="stroke: #A80036; stroke-width: 1.5;" x1="7" x2="131" y1="416.3047" y2="416.3047"/><!--MD5=[3a29e3f3913b94d802fa07af70077bde]
class MyValueObject--><rect fill="#FEFECE" filter="url(#fd1rhvrws7ee0)" height="176.0469" id="MyValueObject" style="stroke: #A80036; stroke-width: 1.5;" width="176" x="167" y="306"/><ellipse cx="205.85" cy="322" fill="#B4A7E5" rx="11" ry="11" style="stroke: #A80036; stroke-width: 1.0;"/><path d="M206.8031,318.7813 L206.8031,325.2969 L208.5219,325.2969 C208.975,325.2969 209.1156,325.3281 209.2875,325.4531 C209.5219,325.625 209.6313,325.875 209.6313,326.1563 C209.6313,326.7188 209.2719,327 208.5219,327 L203.3813,327 C202.975,327 202.7719,326.9531 202.6156,326.8281 C202.3969,326.6719 202.2563,326.4063 202.2563,326.1563 C202.2563,325.8594 202.4125,325.5781 202.6625,325.4219 C202.8188,325.3125 202.9438,325.2969 203.3813,325.2969 L205.1,325.2969 L205.1,318.7813 L203.3813,318.7813 C202.9594,318.7813 202.7719,318.75 202.6156,318.6406 C202.3969,318.4688 202.2563,318.2188 202.2563,317.9375 C202.2563,317.6563 202.4125,317.3594 202.6625,317.2031 C202.8188,317.1094 202.9438,317.0938 203.3813,317.0938 L208.5219,317.0938 C208.975,317.0938 209.1156,317.125 209.2875,317.2344 C209.5219,317.4063 209.6313,317.6719 209.6313,317.9375 C209.6313,318.2344 209.4906,318.5156 209.225,318.6719 C209.1,318.75 208.9125,318.7813 208.5219,318.7813 Z "/><text fill="#000000" font-family="sans-serif" font-size="12" font-style="italic" lengthAdjust="spacingAndGlyphs" textLength="91" x="225.15" y="326.1543">MyValueObject</text><line style="stroke: #A80036; stroke-width: 1.5;" x1="168" x2="342" y1="338" y2="338"/><text fill="#000000" font-family="sans-serif" font-size="11" lengthAdjust="spacingAndGlyphs" textLength="82" x="173" y="352.2104">aString: string</text><text fill="#000000" font-family="sans-serif" font-size="11" lengthAdjust="spacingAndGlyphs" textLength="104" x="173" y="365.0151">aNumber: number</text><text fill="#000000" font-family="sans-serif" font-size="11" lengthAdjust="spacingAndGlyphs" textLength="106" x="173" y="377.8198">aBoolean: boolean</text><text fill="#000000" font-family="sans-serif" font-size="11" lengthAdjust="spacingAndGlyphs" textLength="128" x="173" y="390.6245">aUndefined: undefined</text><text fill="#000000" font-family="sans-serif" font-size="11" lengthAdjust="spacingAndGlyphs" textLength="56" x="173" y="403.4292">aNull: null</text><text fill="#000000" font-family="sans-serif" font-size="11" lengthAdjust="spacingAndGlyphs" textLength="55" x="173" y="416.2339">aAny: any</text><text fill="#000000" font-family="sans-serif" font-size="11" lengthAdjust="spacingAndGlyphs" textLength="104" x="173" y="429.0386">aSet: Set&lt;string&gt;</text><text fill="#000000" font-family="sans-serif" font-size="11" lengthAdjust="spacingAndGlyphs" textLength="126" x="173" y="441.8433">aArray: Array&lt;string&gt;</text><text fill="#000000" font-family="sans-serif" font-size="11" lengthAdjust="spacingAndGlyphs" textLength="123" x="173" y="454.6479">anotherArray: string[]</text><text fill="#000000" font-family="sans-serif" font-size="11" lengthAdjust="spacingAndGlyphs" textLength="164" x="173" y="467.4526">aMap: Map&lt;number, string&gt;</text><line style="stroke: #A80036; stroke-width: 1.5;" x1="168" x2="342" y1="474.0469" y2="474.0469"/><!--MD5=[91ba9a89193dc5f4d679610098ffd6f0]
class MyRootAggregate--><rect fill="#FEFECE" filter="url(#fd1rhvrws7ee0)" height="73.6094" id="MyRootAggregate" style="stroke: #A80036; stroke-width: 1.5;" width="144" x="90" y="171"/><ellipse cx="105" cy="187" fill="#B4A7E5" rx="11" ry="11" style="stroke: #A80036; stroke-width: 1.0;"/><path d="M105.9531,183.7813 L105.9531,190.2969 L107.6719,190.2969 C108.125,190.2969 108.2656,190.3281 108.4375,190.4531 C108.6719,190.625 108.7813,190.875 108.7813,191.1563 C108.7813,191.7188 108.4219,192 107.6719,192 L102.5313,192 C102.125,192 101.9219,191.9531 101.7656,191.8281 C101.5469,191.6719 101.4063,191.4063 101.4063,191.1563 C101.4063,190.8594 101.5625,190.5781 101.8125,190.4219 C101.9688,190.3125 102.0938,190.2969 102.5313,190.2969 L104.25,190.2969 L104.25,183.7813 L102.5313,183.7813 C102.1094,183.7813 101.9219,183.75 101.7656,183.6406 C101.5469,183.4688 101.4063,183.2188 101.4063,182.9375 C101.4063,182.6563 101.5625,182.3594 101.8125,182.2031 C101.9688,182.1094 102.0938,182.0938 102.5313,182.0938 L107.6719,182.0938 C108.125,182.0938 108.2656,182.125 108.4375,182.2344 C108.6719,182.4063 108.7813,182.6719 108.7813,182.9375 C108.7813,183.2344 108.6406,183.5156 108.375,183.6719 C108.25,183.75 108.0625,183.7813 107.6719,183.7813 Z "/><text fill="#000000" font-family="sans-serif" font-size="12" font-style="italic" lengthAdjust="spacingAndGlyphs" textLength="112" x="119" y="191.1543">MyRootAggregate</text><line style="stroke: #A80036; stroke-width: 1.5;" x1="91" x2="233" y1="203" y2="203"/><text fill="#000000" font-family="sans-serif" font-size="11" lengthAdjust="spacingAndGlyphs" textLength="130" x="96" y="217.2104">identity: MyRootIdentity</text><text fill="#000000" font-family="sans-serif" font-size="11" lengthAdjust="spacingAndGlyphs" textLength="103" x="96" y="230.0151">vo: MyValueObject</text><line style="stroke: #A80036; stroke-width: 1.5;" x1="91" x2="233" y1="236.6094" y2="236.6094"/><!--MD5=[316262e4f5f8802d09b1e1c0bb19f0e7]
class MyRepository--><rect fill="#FEFECE" filter="url(#fd1rhvrws7ee0)" height="48" id="MyRepository" style="stroke: #A80036; stroke-width: 1.5;" width="114" x="269" y="184"/><ellipse cx="284" cy="200" fill="#ADD1B2" rx="11" ry="11" style="stroke: #A80036; stroke-width: 1.0;"/><path d="M286.3438,195.6719 L286.5156,195.75 C286.7344,195.4375 286.9375,195.3438 287.2344,195.3438 C287.5313,195.3438 287.8125,195.4844 287.9688,195.75 C288.0625,195.9063 288.0781,196.0313 288.0781,196.4688 L288.0781,197.8906 C288.0781,198.3125 288.0469,198.5 287.9375,198.6563 C287.7656,198.875 287.5,199.0156 287.2344,199.0156 C287.0156,199.0156 286.7813,198.9063 286.6406,198.7656 C286.5,198.6406 286.4688,198.5156 286.4063,198.1094 C286.3125,197.7031 286.1406,197.4844 285.6563,197.2031 C285.1875,196.9531 284.5781,196.7969 284,196.7969 C282.2656,196.7969 281.0156,198.1094 281.0156,199.8906 L281.0156,200.9844 C281.0156,202.6875 282.3125,203.7813 284.3594,203.7813 C285.125,203.7813 285.8125,203.6563 286.2344,203.3906 C286.4219,203.2969 286.4219,203.2969 286.875,202.8125 C287.0625,202.625 287.2656,202.5469 287.4844,202.5469 C287.9531,202.5469 288.3438,202.9375 288.3438,203.3906 C288.3438,203.7813 288.0156,204.2344 287.4375,204.6406 C286.6875,205.1875 285.5313,205.4844 284.3125,205.4844 C281.4219,205.4844 279.3125,203.5938 279.3125,201.0156 L279.3125,199.8906 C279.3125,197.1719 281.3125,195.0938 283.9375,195.0938 C284.8125,195.0938 285.4063,195.2344 286.3438,195.6719 Z "/><text fill="#000000" font-family="sans-serif" font-size="12" lengthAdjust="spacingAndGlyphs" textLength="82" x="298" y="204.1543">MyRepository</text><line style="stroke: #A80036; stroke-width: 1.5;" x1="270" x2="382" y1="216" y2="216"/><line style="stroke: #A80036; stroke-width: 1.5;" x1="270" x2="382" y1="224" y2="224"/><!--MD5=[219898b7f8d5c969bf80bd91dd512ee8]
class MyService--><rect fill="#FEFECE" filter="url(#fd1rhvrws7ee0)" height="86.4141" id="MyService" style="stroke: #A80036; stroke-width: 1.5;" width="303" x="121.5" y="8"/><ellipse cx="238.25" cy="24" fill="#ADD1B2" rx="11" ry="11" style="stroke: #A80036; stroke-width: 1.0;"/><path d="M240.5938,19.6719 L240.7656,19.75 C240.9844,19.4375 241.1875,19.3438 241.4844,19.3438 C241.7813,19.3438 242.0625,19.4844 242.2188,19.75 C242.3125,19.9063 242.3281,20.0313 242.3281,20.4688 L242.3281,21.8906 C242.3281,22.3125 242.2969,22.5 242.1875,22.6563 C242.0156,22.875 241.75,23.0156 241.4844,23.0156 C241.2656,23.0156 241.0313,22.9063 240.8906,22.7656 C240.75,22.6406 240.7188,22.5156 240.6563,22.1094 C240.5625,21.7031 240.3906,21.4844 239.9063,21.2031 C239.4375,20.9531 238.8281,20.7969 238.25,20.7969 C236.5156,20.7969 235.2656,22.1094 235.2656,23.8906 L235.2656,24.9844 C235.2656,26.6875 236.5625,27.7813 238.6094,27.7813 C239.375,27.7813 240.0625,27.6563 240.4844,27.3906 C240.6719,27.2969 240.6719,27.2969 241.125,26.8125 C241.3125,26.625 241.5156,26.5469 241.7344,26.5469 C242.2031,26.5469 242.5938,26.9375 242.5938,27.3906 C242.5938,27.7813 242.2656,28.2344 241.6875,28.6406 C240.9375,29.1875 239.7813,29.4844 238.5625,29.4844 C235.6719,29.4844 233.5625,27.5938 233.5625,25.0156 L233.5625,23.8906 C233.5625,21.1719 235.5625,19.0938 238.1875,19.0938 C239.0625,19.0938 239.6563,19.2344 240.5938,19.6719 Z "/><text fill="#000000" font-family="sans-serif" font-size="12" lengthAdjust="spacingAndGlyphs" textLength="61" x="258.75" y="28.1543">MyService</text><line style="stroke: #A80036; stroke-width: 1.5;" x1="122.5" x2="423.5" y1="40" y2="40"/><text fill="#000000" font-family="sans-serif" font-size="11" lengthAdjust="spacingAndGlyphs" textLength="141" x="127.5" y="54.2104">repository: MyRepository</text><line style="stroke: #A80036; stroke-width: 1.5;" x1="122.5" x2="423.5" y1="60.8047" y2="60.8047"/><text fill="#000000" font-family="sans-serif" font-size="11" lengthAdjust="spacingAndGlyphs" textLength="156" x="127.5" y="75.0151">findAll(): MyRootAggregate[]</text><text fill="#000000" font-family="sans-serif" font-size="11" lengthAdjust="spacingAndGlyphs" textLength="291" x="127.5" y="87.8198">findById(rootAggregateId: string): MyRootAggregate</text><!--MD5=[22b68b33d0e5ae6876128e46995fc145]
link MyRootAggregate to MyRootIdentity--><path d="M143.626,245.352 C126.976,278.294 102.6201,326.483 86.3093,358.754 " fill="none" id="MyRootAggregate-&gt;MyRootIdentity" style="stroke: #A80036; stroke-width: 1.0;"/><polygon fill="#A80036" points="83.963,363.396,91.593,357.1684,86.2186,358.9337,84.4533,353.5594,83.963,363.396" style="stroke: #A80036; stroke-width: 1.0;"/><!--MD5=[fafb9b6b0f34b4c598136fc701f3104e]
link MyRootAggregate to MyValueObject--><path d="M180.374,245.352 C188.543,261.516 198.568,281.35 208.587,301.173 " fill="none" id="MyRootAggregate-&gt;MyValueObject" style="stroke: #A80036; stroke-width: 1.0;"/><polygon fill="#A80036" points="210.86,305.669,210.3701,295.8323,208.6045,301.2066,203.2302,299.4411,210.86,305.669" style="stroke: #A80036; stroke-width: 1.0;"/><!--MD5=[7dbc51252b0498a319275a0293e08115]
link MyService to MyRepository--><path d="M287.482,94.354 C296.696,121.3 308.369,155.437 316.436,179.031 " fill="none" id="MyService-&gt;MyRepository" style="stroke: #A80036; stroke-width: 1.0;"/><polygon fill="#A80036" points="318.101,183.9,318.9726,174.0898,316.4826,179.1692,311.4033,176.6792,318.101,183.9" style="stroke: #A80036; stroke-width: 1.0;"/><!--MD5=[21894006586a2c400af7a251d631a8b2]
link MyService to MyRootAggregate--><path d="M242.669,94.354 C225.53,118.287 204.329,147.892 187.963,170.745 " fill="none" id="MyService-MyRootAggregate" style="stroke: #A80036; stroke-width: 1.0;"/><text fill="#000000" font-family="sans-serif" font-size="13" lengthAdjust="spacingAndGlyphs" textLength="23" x="222" y="137.0669">use</text><!--MD5=[f32d1c708d7d94b08eaaf31e90e8a158]
@startuml
interface MyRootIdentity {
  value: string
}

interface MyValueObject {
  aString: string
  aNumber: number
  aBoolean: boolean
  aUndefined: undefined
  aNull: null
  aAny: any
  aSet: Set<string>
  aArray: Array<string>
  anotherArray: string[]
  aMap: Map<number, string>
}

interface MyRootAggregate {
  identity: MyRootIdentity
  vo: MyValueObject
}

class MyRepository

class MyService {
  repository: MyRepository
  findAll(): MyRootAggregate[]
  findById(rootAggregateId: string): MyRootAggregate
}

MyRootAggregate - -> MyRootIdentity
MyRootAggregate - -> MyValueObject
MyService - -> MyRepository
MyService - - MyRootAggregate: use
@enduml

PlantUML version 1.2020.01beta16(Unknown compile time)
(GPL source distribution)
Java Runtime: Java(TM) SE Runtime Environment
JVM: Java HotSpot(TM) 64-Bit Server VM
Java Version: 1.7.0_25-b15
Operating System: Linux
Default Encoding: UTF-8
Language: en
Country: US
--></g></svg>