<?xml version="1.0" encoding="UTF-8" standalone="yes"?><svg xmlns="http://www.w3.org/2000/svg" xmlns:xlink="http://www.w3.org/1999/xlink" height="451px" style="width:778px;height:451px;" version="1.1" viewBox="0 0 778 451" width="778px"><defs><filter height="300%" id="f1" width="300%" x="-1" y="-1"><feGaussianBlur result="blurOut" stdDeviation="2.0"/><feColorMatrix in="blurOut" result="blurOut2" type="matrix" values="0 0 0 0 0 0 0 0 0 0 0 0 0 0 0 0 0 0 .4 0"/><feOffset dx="4.0" dy="4.0" in="blurOut2" result="blurOut3"/><feBlend in="SourceGraphic" in2="blurOut3" mode="normal"/></filter></defs><g><a target="_top" xlink:href="glossary.html#glossaryid-Access" xlink:title="Access"><rect fill="#FEFECE" filter="url(#f1)" height="89.5078" style="stroke: #A80036; stroke-width: 1.5;" width="139" x="486.5" y="223.5"/><ellipse cx="532.25" cy="239.5" fill="#A9DCDF" rx="11" ry="11" style="stroke: #A80036; stroke-width: 1.0;"/><path d="M534.4375,241.2656 L530.2969,241.2656 L529.875,242.2969 L530.2969,242.2969 Q530.9063,242.2969 531.1719,242.5313 Q531.4375,242.7656 531.4375,243.1563 Q531.4375,243.5313 531.1719,243.7656 Q530.9063,244 530.2969,244 L528,244 Q527.3906,244 527.1328,243.7656 Q526.875,243.5313 526.875,243.1406 Q526.875,242.7656 527.1484,242.5234 Q527.4219,242.2813 528.0469,242.2969 L530.7188,235.6406 L529.6094,235.6406 Q529,235.6406 528.7344,235.4063 Q528.4688,235.1719 528.4688,234.7813 Q528.4688,234.4063 528.7344,234.1719 Q529,233.9375 529.6094,233.9375 L533.2813,233.9375 L536.6719,242.2969 Q537.2656,242.2969 537.4531,242.4375 Q537.8438,242.7031 537.8438,243.1563 Q537.8438,243.5313 537.5859,243.7656 Q537.3281,244 536.7188,244 L534.4219,244 Q533.8125,244 533.5469,243.7656 Q533.2813,243.5313 533.2813,243.1406 Q533.2813,242.7656 533.5469,242.5313 Q533.8125,242.2969 534.4219,242.2969 L534.8438,242.2969 L534.4375,241.2656 Z M533.7188,239.5625 L532.3594,236.1875 L530.9844,239.5625 L533.7188,239.5625 Z "/><text fill="#000000" font-family="sans-serif" font-size="12" font-style="italic" lengthAdjust="spacingAndGlyphs" textLength="39" x="552.75" y="244.4102">Access</text><line style="stroke: #A80036; stroke-width: 1.5;" x1="487.5" x2="624.5" y1="255.5" y2="255.5"/></a><a target="_top" xlink:href="glossary.html#glossaryid-Access_phoneNumber" xlink:title="phoneNumber"><text fill="#000000" font-family="sans-serif" font-size="11" lengthAdjust="spacingAndGlyphs" textLength="104" x="492.5" y="270.9189">phoneNumber : String</text></a><a target="_top" xlink:href="glossary.html#glossaryid-Access_price" xlink:title="price"><text fill="#000000" font-family="sans-serif" font-size="11" lengthAdjust="spacingAndGlyphs" textLength="85" x="492.5" y="284.7549">price : BigDecimal</text></a><a target="_top" xlink:href="glossary.html#glossaryid-Access_dateTime" xlink:title="dateTime"><text fill="#000000" font-family="sans-serif" font-size="11" lengthAdjust="spacingAndGlyphs" textLength="127" x="492.5" y="298.5908">dateTime : ZonedDateTime</text></a><line style="stroke: #A80036; stroke-width: 1.5;" x1="487.5" x2="624.5" y1="305.0078" y2="305.0078"/><a target="_top" xlink:href="glossary.html#glossaryid-Bill" xlink:title="Bill"><rect fill="#FEFECE" filter="url(#f1)" height="131.0156" style="stroke: #A80036; stroke-width: 1.5;" width="179" x="466.5" y="8"/><ellipse cx="543.25" cy="24" fill="#ADD1B2" rx="11" ry="11" style="stroke: #A80036; stroke-width: 1.0;"/><path d="M546.0156,19.875 Q546.1719,19.6563 546.3594,19.5469 Q546.5469,19.4375 546.7656,19.4375 Q547.1406,19.4375 547.375,19.6953 Q547.6094,19.9531 547.6094,20.5625 L547.6094,22.0156 Q547.6094,22.625 547.375,22.8906 Q547.1406,23.1563 546.7656,23.1563 Q546.4219,23.1563 546.2188,22.9531 Q546.0156,22.7656 545.9063,22.25 Q545.8594,21.8906 545.6719,21.7031 Q545.3438,21.3281 544.7344,21.1094 Q544.125,20.8906 543.5,20.8906 Q542.7344,20.8906 542.1016,21.2188 Q541.4688,21.5469 540.9766,22.2969 Q540.4844,23.0469 540.4844,24.0781 L540.4844,25.1719 Q540.4844,26.4063 541.375,27.2266 Q542.2656,28.0469 543.8594,28.0469 Q544.7969,28.0469 545.4531,27.7969 Q545.8438,27.6406 546.2656,27.2031 Q546.5313,26.9375 546.6797,26.8594 Q546.8281,26.7813 547.0313,26.7813 Q547.3594,26.7813 547.6172,27.0391 Q547.875,27.2969 547.875,27.6406 Q547.875,27.9844 547.5313,28.3906 Q547.0313,28.9688 546.2344,29.2969 Q545.1563,29.75 543.8594,29.75 Q542.3438,29.75 541.1406,29.125 Q540.1563,28.625 539.4688,27.5547 Q538.7813,26.4844 538.7813,25.2031 L538.7813,24.0469 Q538.7813,22.7188 539.3984,21.5703 Q540.0156,20.4219 541.1094,19.8047 Q542.2031,19.1875 543.4375,19.1875 Q544.1719,19.1875 544.8203,19.3516 Q545.4688,19.5156 546.0156,19.875 Z "/><text fill="#000000" font-family="sans-serif" font-size="12" lengthAdjust="spacingAndGlyphs" textLength="17" x="563.75" y="28.9102">Bill</text><line style="stroke: #A80036; stroke-width: 1.5;" x1="467.5" x2="644.5" y1="40" y2="40"/></a><a target="_top" xlink:href="glossary.html#glossaryid-Bill_month" xlink:title="month"><text fill="#000000" font-family="sans-serif" font-size="11" lengthAdjust="spacingAndGlyphs" textLength="91" x="472.5" y="55.4189">month : YearMonth</text></a><a target="_top" xlink:href="glossary.html#glossaryid-Bill_contract" xlink:title="contract"><text fill="#000000" font-family="sans-serif" font-size="11" lengthAdjust="spacingAndGlyphs" textLength="90" x="472.5" y="69.2549">contract : Contract</text></a><a target="_top" xlink:href="glossary.html#glossaryid-Bill_accesses" xlink:title="accesses"><text fill="#000000" font-family="sans-serif" font-size="11" lengthAdjust="spacingAndGlyphs" textLength="123" x="472.5" y="83.0908">accesses : Set&lt;Access&gt;</text></a><a target="_top" xlink:href="glossary.html#glossaryid-Bill_paymentState" xlink:title="paymentState"><text fill="#000000" font-family="sans-serif" font-size="11" lengthAdjust="spacingAndGlyphs" textLength="141" x="472.5" y="96.9268">paymentState : PaymentState</text></a><line style="stroke: #A80036; stroke-width: 1.5;" x1="467.5" x2="644.5" y1="103.3438" y2="103.3438"/><text fill="#000000" font-family="sans-serif" font-size="11" lengthAdjust="spacingAndGlyphs" textLength="149" x="472.5" y="118.7627">addAccess(Access) : boolean</text><text fill="#000000" font-family="sans-serif" font-size="11" lengthAdjust="spacingAndGlyphs" textLength="167" x="472.5" y="132.5986">removeAccess(Access) : boolean</text><a target="_top" xlink:href="glossary.html#glossaryid-CallAccess" xlink:title="CallAccess"><rect fill="#FEFECE" filter="url(#f1)" height="61.8359" style="stroke: #A80036; stroke-width: 1.5;" width="100" x="439" y="381"/><ellipse cx="456.7" cy="397" fill="#ADD1B2" rx="11" ry="11" style="stroke: #A80036; stroke-width: 1.0;"/><path d="M459.4656,392.875 Q459.6219,392.6563 459.8094,392.5469 Q459.9969,392.4375 460.2156,392.4375 Q460.5906,392.4375 460.825,392.6953 Q461.0594,392.9531 461.0594,393.5625 L461.0594,395.0156 Q461.0594,395.625 460.825,395.8906 Q460.5906,396.1563 460.2156,396.1563 Q459.8719,396.1563 459.6688,395.9531 Q459.4656,395.7656 459.3563,395.25 Q459.3094,394.8906 459.1219,394.7031 Q458.7938,394.3281 458.1844,394.1094 Q457.575,393.8906 456.95,393.8906 Q456.1844,393.8906 455.5516,394.2188 Q454.9188,394.5469 454.4266,395.2969 Q453.9344,396.0469 453.9344,397.0781 L453.9344,398.1719 Q453.9344,399.4063 454.825,400.2266 Q455.7156,401.0469 457.3094,401.0469 Q458.2469,401.0469 458.9031,400.7969 Q459.2938,400.6406 459.7156,400.2031 Q459.9813,399.9375 460.1297,399.8594 Q460.2781,399.7813 460.4813,399.7813 Q460.8094,399.7813 461.0672,400.0391 Q461.325,400.2969 461.325,400.6406 Q461.325,400.9844 460.9813,401.3906 Q460.4813,401.9688 459.6844,402.2969 Q458.6063,402.75 457.3094,402.75 Q455.7938,402.75 454.5906,402.125 Q453.6063,401.625 452.9188,400.5547 Q452.2313,399.4844 452.2313,398.2031 L452.2313,397.0469 Q452.2313,395.7188 452.8484,394.5703 Q453.4656,393.4219 454.5594,392.8047 Q455.6531,392.1875 456.8875,392.1875 Q457.6219,392.1875 458.2703,392.3516 Q458.9188,392.5156 459.4656,392.875 Z "/><text fill="#000000" font-family="sans-serif" font-size="12" lengthAdjust="spacingAndGlyphs" textLength="62" x="471.3" y="401.9102">CallAccess</text><line style="stroke: #A80036; stroke-width: 1.5;" x1="440" x2="538" y1="413" y2="413"/></a><a target="_top" xlink:href="glossary.html#glossaryid-CallAccess_duration" xlink:title="duration"><text fill="#000000" font-family="sans-serif" font-size="11" lengthAdjust="spacingAndGlyphs" textLength="88" x="445" y="428.4189">duration : Duration</text></a><line style="stroke: #A80036; stroke-width: 1.5;" x1="440" x2="538" y1="434.8359" y2="434.8359"/><a target="_top" xlink:href="glossary.html#glossaryid-Contract" xlink:title="Contract"><rect fill="#FEFECE" filter="url(#f1)" height="75.6719" style="stroke: #A80036; stroke-width: 1.5;" width="112" x="6" y="230.5"/><ellipse cx="36.3" cy="246.5" fill="#ADD1B2" rx="11" ry="11" style="stroke: #A80036; stroke-width: 1.0;"/><path d="M39.0656,242.375 Q39.2219,242.1563 39.4094,242.0469 Q39.5969,241.9375 39.8156,241.9375 Q40.1906,241.9375 40.425,242.1953 Q40.6594,242.4531 40.6594,243.0625 L40.6594,244.5156 Q40.6594,245.125 40.425,245.3906 Q40.1906,245.6563 39.8156,245.6563 Q39.4719,245.6563 39.2688,245.4531 Q39.0656,245.2656 38.9563,244.75 Q38.9094,244.3906 38.7219,244.2031 Q38.3938,243.8281 37.7844,243.6094 Q37.175,243.3906 36.55,243.3906 Q35.7844,243.3906 35.1516,243.7188 Q34.5188,244.0469 34.0266,244.7969 Q33.5344,245.5469 33.5344,246.5781 L33.5344,247.6719 Q33.5344,248.9063 34.425,249.7266 Q35.3156,250.5469 36.9094,250.5469 Q37.8469,250.5469 38.5031,250.2969 Q38.8938,250.1406 39.3156,249.7031 Q39.5813,249.4375 39.7297,249.3594 Q39.8781,249.2813 40.0813,249.2813 Q40.4094,249.2813 40.6672,249.5391 Q40.925,249.7969 40.925,250.1406 Q40.925,250.4844 40.5813,250.8906 Q40.0813,251.4688 39.2844,251.7969 Q38.2063,252.25 36.9094,252.25 Q35.3938,252.25 34.1906,251.625 Q33.2063,251.125 32.5188,250.0547 Q31.8313,248.9844 31.8313,247.7031 L31.8313,246.5469 Q31.8313,245.2188 32.4484,244.0703 Q33.0656,242.9219 34.1594,242.3047 Q35.2531,241.6875 36.4875,241.6875 Q37.2219,241.6875 37.8703,241.8516 Q38.5188,242.0156 39.0656,242.375 Z "/><text fill="#000000" font-family="sans-serif" font-size="12" lengthAdjust="spacingAndGlyphs" textLength="46" x="53.7" y="251.4102">Contract</text><line style="stroke: #A80036; stroke-width: 1.5;" x1="7" x2="117" y1="262.5" y2="262.5"/></a><a target="_top" xlink:href="glossary.html#glossaryid-Contract_id" xlink:title="id"><text fill="#000000" font-family="sans-serif" font-size="11" lengthAdjust="spacingAndGlyphs" textLength="41" x="12" y="277.9189">id : Long</text></a><a target="_top" xlink:href="glossary.html#glossaryid-Contract_customer" xlink:title="customer"><text fill="#000000" font-family="sans-serif" font-size="11" lengthAdjust="spacingAndGlyphs" textLength="100" x="12" y="291.7549">customer : Customer</text></a><line style="stroke: #A80036; stroke-width: 1.5;" x1="7" x2="117" y1="298.1719" y2="298.1719"/><a target="_top" xlink:href="glossary.html#glossaryid-Customer" xlink:title="Customer"><rect fill="#FEFECE" filter="url(#f1)" height="103.3438" style="stroke: #A80036; stroke-width: 1.5;" width="185" x="266.5" y="217"/><ellipse cx="327.25" cy="233" fill="#ADD1B2" rx="11" ry="11" style="stroke: #A80036; stroke-width: 1.0;"/><path d="M330.0156,228.875 Q330.1719,228.6563 330.3594,228.5469 Q330.5469,228.4375 330.7656,228.4375 Q331.1406,228.4375 331.375,228.6953 Q331.6094,228.9531 331.6094,229.5625 L331.6094,231.0156 Q331.6094,231.625 331.375,231.8906 Q331.1406,232.1563 330.7656,232.1563 Q330.4219,232.1563 330.2188,231.9531 Q330.0156,231.7656 329.9063,231.25 Q329.8594,230.8906 329.6719,230.7031 Q329.3438,230.3281 328.7344,230.1094 Q328.125,229.8906 327.5,229.8906 Q326.7344,229.8906 326.1016,230.2188 Q325.4688,230.5469 324.9766,231.2969 Q324.4844,232.0469 324.4844,233.0781 L324.4844,234.1719 Q324.4844,235.4063 325.375,236.2266 Q326.2656,237.0469 327.8594,237.0469 Q328.7969,237.0469 329.4531,236.7969 Q329.8438,236.6406 330.2656,236.2031 Q330.5313,235.9375 330.6797,235.8594 Q330.8281,235.7813 331.0313,235.7813 Q331.3594,235.7813 331.6172,236.0391 Q331.875,236.2969 331.875,236.6406 Q331.875,236.9844 331.5313,237.3906 Q331.0313,237.9688 330.2344,238.2969 Q329.1563,238.75 327.8594,238.75 Q326.3438,238.75 325.1406,238.125 Q324.1563,237.625 323.4688,236.5547 Q322.7813,235.4844 322.7813,234.2031 L322.7813,233.0469 Q322.7813,231.7188 323.3984,230.5703 Q324.0156,229.4219 325.1094,228.8047 Q326.2031,228.1875 327.4375,228.1875 Q328.1719,228.1875 328.8203,228.3516 Q329.4688,228.5156 330.0156,228.875 Z "/><text fill="#000000" font-family="sans-serif" font-size="12" lengthAdjust="spacingAndGlyphs" textLength="55" x="347.75" y="237.9102">Customer</text><line style="stroke: #A80036; stroke-width: 1.5;" x1="267.5" x2="450.5" y1="249" y2="249"/></a><a target="_top" xlink:href="glossary.html#glossaryid-Customer_email" xlink:title="email"><text fill="#000000" font-family="sans-serif" font-size="11" lengthAdjust="spacingAndGlyphs" textLength="61" x="272.5" y="264.4189">email : String</text></a><a target="_top" xlink:href="glossary.html#glossaryid-Customer_contracts" xlink:title="contracts"><text fill="#000000" font-family="sans-serif" font-size="11" lengthAdjust="spacingAndGlyphs" textLength="124" x="272.5" y="278.2549">contracts : Set&lt;Contract&gt;</text></a><line style="stroke: #A80036; stroke-width: 1.5;" x1="267.5" x2="450.5" y1="284.6719" y2="284.6719"/><text fill="#000000" font-family="sans-serif" font-size="11" lengthAdjust="spacingAndGlyphs" textLength="155" x="272.5" y="300.0908">addContract(Contract) : boolean</text><text fill="#000000" font-family="sans-serif" font-size="11" lengthAdjust="spacingAndGlyphs" textLength="173" x="272.5" y="313.9268">removeContract(Contract) : boolean</text><a target="_top" xlink:href="glossary.html#glossaryid-PaymentState" xlink:title="PaymentState"><rect fill="#FEFECE" filter="url(#f1)" height="75.6719" style="stroke: #A80036; stroke-width: 1.5;" width="108" x="661" y="230.5"/><ellipse cx="676" cy="246.5" fill="#EB937F" rx="11" ry="11" style="stroke: #A80036; stroke-width: 1.0;"/><path d="M674.8594,247.2969 L674.8594,249.7969 L679.1875,249.7969 L679.1875,248.875 Q679.1875,248.2656 679.4297,248 Q679.6719,247.7344 680.0469,247.7344 Q680.4219,247.7344 680.6563,248 Q680.8906,248.2656 680.8906,248.875 L680.8906,251.5 L672.8906,251.5 Q672.2656,251.5 672.0078,251.2656 Q671.75,251.0313 671.75,250.6406 Q671.75,250.2656 672.0156,250.0313 Q672.2813,249.7969 672.8906,249.7969 L673.1563,249.7969 L673.1563,243.1406 L672.8906,243.1406 Q672.2656,243.1406 672.0078,242.9063 Q671.75,242.6719 671.75,242.2813 Q671.75,241.9063 672.0078,241.6719 Q672.2656,241.4375 672.8906,241.4375 L680.5156,241.4375 L680.5156,244.0313 Q680.5156,244.6406 680.2891,244.8984 Q680.0625,245.1563 679.6719,245.1563 Q679.2969,245.1563 679.0625,244.8984 Q678.8281,244.6406 678.8281,244.0313 L678.8281,243.1406 L674.8594,243.1406 L674.8594,245.5938 L676.3438,245.5938 Q676.3438,244.9375 676.4688,244.75 Q676.7344,244.3438 677.2031,244.3438 Q677.5781,244.3438 677.8125,244.6016 Q678.0469,244.8594 678.0469,245.4688 L678.0469,247.4375 Q678.0469,247.9844 677.9219,248.1719 Q677.6563,248.5625 677.2031,248.5625 Q676.7344,248.5625 676.4688,248.1563 Q676.3438,247.9688 676.3438,247.2969 L674.8594,247.2969 Z "/><text fill="#000000" font-family="sans-serif" font-size="12" lengthAdjust="spacingAndGlyphs" textLength="76" x="690" y="251.4102">PaymentState</text><line style="stroke: #A80036; stroke-width: 1.5;" x1="662" x2="768" y1="262.5" y2="262.5"/></a><a target="_top" xlink:href="glossary.html#glossaryid-PaymentState_WAITING" xlink:title="WAITING"><text fill="#000000" font-family="sans-serif" font-size="11" lengthAdjust="spacingAndGlyphs" textLength="43" x="667" y="277.9189">WAITING</text></a><a target="_top" xlink:href="glossary.html#glossaryid-PaymentState_DONE" xlink:title="DONE"><text fill="#000000" font-family="sans-serif" font-size="11" lengthAdjust="spacingAndGlyphs" textLength="28" x="667" y="291.7549">DONE</text></a><line style="stroke: #A80036; stroke-width: 1.5;" x1="662" x2="768" y1="298.1719" y2="298.1719"/><a target="_top" xlink:href="glossary.html#glossaryid-SmsAccess" xlink:title="SmsAccess"><rect fill="#FEFECE" filter="url(#f1)" height="48" style="stroke: #A80036; stroke-width: 1.5;" width="98" x="574" y="388"/><ellipse cx="589" cy="404" fill="#ADD1B2" rx="11" ry="11" style="stroke: #A80036; stroke-width: 1.0;"/><path d="M591.7656,399.875 Q591.9219,399.6563 592.1094,399.5469 Q592.2969,399.4375 592.5156,399.4375 Q592.8906,399.4375 593.125,399.6953 Q593.3594,399.9531 593.3594,400.5625 L593.3594,402.0156 Q593.3594,402.625 593.125,402.8906 Q592.8906,403.1563 592.5156,403.1563 Q592.1719,403.1563 591.9688,402.9531 Q591.7656,402.7656 591.6563,402.25 Q591.6094,401.8906 591.4219,401.7031 Q591.0938,401.3281 590.4844,401.1094 Q589.875,400.8906 589.25,400.8906 Q588.4844,400.8906 587.8516,401.2188 Q587.2188,401.5469 586.7266,402.2969 Q586.2344,403.0469 586.2344,404.0781 L586.2344,405.1719 Q586.2344,406.4063 587.125,407.2266 Q588.0156,408.0469 589.6094,408.0469 Q590.5469,408.0469 591.2031,407.7969 Q591.5938,407.6406 592.0156,407.2031 Q592.2813,406.9375 592.4297,406.8594 Q592.5781,406.7813 592.7813,406.7813 Q593.1094,406.7813 593.3672,407.0391 Q593.625,407.2969 593.625,407.6406 Q593.625,407.9844 593.2813,408.3906 Q592.7813,408.9688 591.9844,409.2969 Q590.9063,409.75 589.6094,409.75 Q588.0938,409.75 586.8906,409.125 Q585.9063,408.625 585.2188,407.5547 Q584.5313,406.4844 584.5313,405.2031 L584.5313,404.0469 Q584.5313,402.7188 585.1484,401.5703 Q585.7656,400.4219 586.8594,399.8047 Q587.9531,399.1875 589.1875,399.1875 Q589.9219,399.1875 590.5703,399.3516 Q591.2188,399.5156 591.7656,399.875 Z "/><text fill="#000000" font-family="sans-serif" font-size="12" lengthAdjust="spacingAndGlyphs" textLength="66" x="603" y="408.9102">SmsAccess</text><line style="stroke: #A80036; stroke-width: 1.5;" x1="575" x2="671" y1="420" y2="420"/><line style="stroke: #A80036; stroke-width: 1.5;" x1="575" x2="671" y1="428" y2="428"/></a><path d="M526.362,332.094 C518.379,348.9539 510.099,366.4395 503.369,380.6528 " fill="none" style="stroke: #A80036; stroke-width: 1.0;"/><polygon fill="none" points="520.099,328.964,534.985,313.883,532.752,334.955,520.099,328.964" style="stroke: #A80036; stroke-width: 1.0;"/><path d="M585.605,332.024 C594.984,351.8328 604.777,372.514 611.987,387.7419 " fill="none" style="stroke: #A80036; stroke-width: 1.0;"/><polygon fill="none" points="579.248,334.955,577.015,313.883,591.901,328.964,579.248,334.955" style="stroke: #A80036; stroke-width: 1.0;"/><path d="M556,139.035 C556,164.918 556,194.26 556,218.362 " fill="none" style="stroke: #A80036; stroke-width: 1.0;"/><polygon fill="#A80036" points="556,223.422,560,214.422,556,218.422,552,214.422,556,223.422" style="stroke: #A80036; stroke-width: 1.0;"/><text fill="#000000" font-family="sans-serif" font-size="13" lengthAdjust="spacingAndGlyphs" textLength="56" x="557" y="183.4951">accesses</text><text fill="#000000" font-family="sans-serif" font-size="13" lengthAdjust="spacingAndGlyphs" textLength="5" x="550.6016" y="212.525">*</text><path d="M466.254,109.563 C366.743,148.441 208.937,210.093 122.879,243.715 " fill="none" style="stroke: #A80036; stroke-width: 1.0;"/><polygon fill="#A80036" points="118.076,245.592,127.9146,246.0417,122.733,243.7721,125.0027,238.5905,118.076,245.592" style="stroke: #A80036; stroke-width: 1.0;"/><text fill="#000000" font-family="sans-serif" font-size="13" lengthAdjust="spacingAndGlyphs" textLength="47" x="310" y="183.4951">contract</text><path d="M609.166,139.035 C632.903,167.848 660.171,200.947 681.084,226.331 " fill="none" style="stroke: #A80036; stroke-width: 1.0;"/><polygon fill="#A80036" points="684.384,230.337,681.7469,220.8478,681.2041,226.4785,675.5733,225.9357,684.384,230.337" style="stroke: #A80036; stroke-width: 1.0;"/><text fill="#000000" font-family="sans-serif" font-size="13" lengthAdjust="spacingAndGlyphs" textLength="81" x="647" y="183.4951">paymentState</text><path d="M123.424,268.5 C163.115,268.5 215.638,268.5 261.016,268.5 " fill="none" style="stroke: #A80036; stroke-width: 1.0;"/><polygon fill="#A80036" points="266.23,268.5,257.23,264.5,261.23,268.5,257.23,272.5,266.23,268.5" style="stroke: #A80036; stroke-width: 1.0;"/><polygon fill="#A80036" points="118.213,268.5,127.213,272.5,123.213,268.5,127.213,264.5,118.213,268.5" style="stroke: #A80036; stroke-width: 1.0;"/><text fill="#000000" font-family="sans-serif" font-size="13" lengthAdjust="spacingAndGlyphs" textLength="112" x="136.25" y="261.9951">customer/contracts</text><text fill="#000000" font-family="sans-serif" font-size="13" lengthAdjust="spacingAndGlyphs" textLength="5" x="126.1026" y="264.9658">*</text></g></svg>